<svg width="47" height="47" viewBox="0 0 47 47" fill="none" xmlns="http://www.w3.org/2000/svg">
<g filter="url(#filter0_i_328_18423)">
<path fill-rule="evenodd" clip-rule="evenodd" d="M3.42206 25.8544C4.98415 24.2923 7.51681 24.2923 9.07891 25.8544L18.4633 35.2388L37.948 15.7541C39.5101 14.192 42.0428 14.192 43.6049 15.7541C45.167 17.3162 45.167 19.8488 43.6049 21.4109L21.8491 43.1667C21.7551 43.2607 21.6575 43.3491 21.5568 43.4318C21.4741 43.5325 21.3857 43.63 21.2917 43.7241C19.7296 45.2862 17.1969 45.2862 15.6349 43.7241L3.42206 31.5113C1.85996 29.9492 1.85996 27.4165 3.42206 25.8544Z" fill="url(#paint0_linear_328_18423)"/>
</g>
<defs>
<filter id="filter0_i_328_18423" x="2.25049" y="14.5825" width="43.5259" height="31.3131" filterUnits="userSpaceOnUse" color-interpolation-filters="sRGB">
<feFlood flood-opacity="0" result="BackgroundImageFix"/>
<feBlend mode="normal" in="SourceGraphic" in2="BackgroundImageFix" result="shape"/>
<feColorMatrix in="SourceAlpha" type="matrix" values="0 0 0 0 0 0 0 0 0 0 0 0 0 0 0 0 0 0 127 0" result="hardAlpha"/>
<feOffset dx="1" dy="1"/>
<feGaussianBlur stdDeviation="1.5"/>
<feComposite in2="hardAlpha" operator="arithmetic" k2="-1" k3="1"/>
<feColorMatrix type="matrix" values="0 0 0 0 1 0 0 0 0 1 0 0 0 0 1 0 0 0 0.3 0"/>
<feBlend mode="normal" in2="shape" result="effect1_innerShadow_328_18423"/>
</filter>
<linearGradient id="paint0_linear_328_18423" x1="16" y1="10" x2="33" y2="41.5" gradientUnits="userSpaceOnUse">
<stop stop-color="white" stop-opacity="0.8"/>
<stop offset="1" stop-color="white" stop-opacity="0.4"/>
</linearGradient>
</defs>
</svg>
