<svg width="62" height="12" viewBox="0 0 62 12" fill="none" xmlns="http://www.w3.org/2000/svg">
<path d="M5.04324 11.0118V6.44671L4.47804 8.53359H2.60855L2.04333 6.44671V11.0118H0.130371V0.446899H2.04333L3.56502 5.27283L5.0867 0.446899H6.99969V11.0118H5.04324Z" fill="white"/>
<path d="M7.0867 0.359985H6.91278H5.13025H5.04329L4.99982 0.49041L3.56507 5.01197L2.13034 0.49041L2.08688 0.359985H1.95645H0.173891H0V0.533876V10.9248V11.0987H0.173891H1.95645H2.13034V10.9248V7.09888L2.52164 8.49011L2.56511 8.62056H2.69554H4.4346H4.56506L4.60852 8.49011L4.99982 7.05539V10.9248V11.0987H5.17371H6.95628H7.13017V10.9248V0.533876V0.359985H7.0867ZM6.91278 0.533876V10.9248H5.13025V5.83804L4.4346 8.49011H2.69554L1.99992 5.83804V10.9683H0.217384V0.577369H1.99992L3.60856 5.62066L5.21721 0.577369H6.91278V0.533876Z" fill="white"/>
<path d="M11.0864 2.40335H9.95596V5.96845H11.0864V2.40335ZM11.0864 11.0118V7.9249H9.95596V11.0118H7.99951V1.62078C7.99951 0.968625 8.52124 0.446899 9.17339 0.446899H11.869C12.5211 0.446899 13.0428 0.968625 13.0428 1.62078V11.0118H11.0864Z" fill="white"/>
<path d="M10.043 2.49033H10.9995V5.88151H10.043V2.49033ZM11.869 0.359985H9.17343C8.47781 0.359985 7.9126 0.925167 7.9126 1.62079V10.9248V11.0987H8.08652H9.86905H10.043V10.9248V8.01188H10.9995V10.9248V11.0987H11.1734H12.9559H13.1298V10.9248V3.66421V2.0121V1.62079C13.1298 0.925167 12.5646 0.359985 11.869 0.359985ZM9.86905 6.05543H11.1734V2.31644H9.86905V6.05543ZM11.869 0.533876C12.4777 0.533876 12.9559 1.01212 12.9559 1.62079V2.0121V3.66421V10.9248H11.1734V7.83796H9.86905V10.9248H8.08652V1.62079C8.08652 1.01212 8.56476 0.533876 9.17343 0.533876H11.869Z" fill="white"/>
<path d="M17.3038 11.0118L17.2603 10.8813L15.956 6.70756H15.9125V11.0118H13.9561V0.446899H15.9125V4.70764L17.2603 0.446899H19.2602L17.5646 5.7076L19.2602 11.0118H17.3038Z" fill="white"/>
<path d="M19.3907 0.359985H19.1733H17.3473H17.2169L17.1734 0.49041L15.9995 4.18593V0.533876V0.359985H15.8256H14.0431H13.8691V0.533876V10.9248V11.0987H14.0431H15.8256H15.9995V10.9248V7.18581L17.1734 10.9248V10.9683L17.2169 11.0987H17.3473H19.1298H19.3472L19.2603 10.8813L17.6082 5.70762L19.2603 0.577369L19.3907 0.359985ZM19.1733 0.533876L17.5212 5.70762L19.1733 10.9248H17.3908V10.8813L16.043 6.62062H15.8691V10.9683H14.0865V0.577369H15.8691V4.88155H15.9995L17.3473 0.577369H19.1733V0.533876Z" fill="white"/>
<path d="M19.6079 11.0118V0.446899H24.6512V2.40335H21.5644V4.75111H24.0425V6.70756H21.5644V9.05531H24.6512V11.0118H19.6079Z" fill="white"/>
<path d="M24.7382 0.359985H24.5643H19.6949H19.521V0.533876V10.9248V11.0987H19.6949H24.5643H24.7382V10.9248V9.14226V8.96837H24.5643H21.6514V6.79454H23.9556H24.1295V6.62062V4.83808V4.66417H23.9556H21.6514V2.49033H24.5643H24.7382V2.31644V0.533876V0.359985ZM24.5643 0.533876V2.31644H21.4774V4.83808H23.9556V6.62062H21.4774V9.14226H24.5643V10.9248H19.6949V0.533876H24.5643Z" fill="white"/>
<path d="M27.8252 0.446899H29.7816V11.0118H27.8252V0.446899Z" fill="white"/>
<path d="M29.8686 0.359985H29.6947H27.9122H27.7383V0.533876V10.9248V11.0987H27.9122H29.6947H29.8686V10.9248V0.533876V0.359985ZM29.6947 10.9248H27.9122V0.533876H29.6947V10.9248Z" fill="white"/>
<path d="M33.7812 11.0118L32.6073 6.96841V11.0118H30.6509V0.446899H32.5638L33.7377 4.22938V0.446899H35.6942V11.0118H33.7812Z" fill="white"/>
<path d="M35.7812 0.360021H35.6073H33.8248H33.6508V0.533912V3.66424L32.6509 0.446953L32.6074 0.316528H32.477H30.6944H30.5205V0.490446V10.8814V11.0553H30.6944H32.477H32.6509V10.8814V7.57715L33.6508 10.9683L33.6943 11.0988H33.8248H35.6073H35.7812V10.9249V0.533912V0.360021ZM35.6073 0.533912V10.9249H33.8248L32.5205 6.3598V10.9249H30.7379V0.533912H32.5205L33.8248 4.79463V0.533912H35.6073Z" fill="white"/>
<path d="M39.2593 0.446899H41.2157V11.0118H39.2593V0.446899Z" fill="white"/>
<path d="M41.3027 0.359985H41.1288H39.3463H39.1724V0.533876V10.9248V11.0987H39.3463H41.1288H41.3027V10.9248V0.533876V0.359985ZM41.1288 10.9248H39.3463V0.533876H41.1288V10.9248Z" fill="white"/>
<path d="M45.2158 11.0118L44.0419 6.96841V11.0118H42.0854V0.446899H43.9984L45.1723 4.22938V0.446899H47.1287V11.0118H45.2158Z" fill="white"/>
<path d="M47.2157 0.360021H47.0418H45.2593H45.0854V0.533912V3.66424L44.0854 0.446953L44.0419 0.316528H43.9115H42.129H41.9985V0.490446V10.8814V11.0553H42.1725H43.955H44.1289V10.8814V7.57715L45.1289 10.9683L45.1723 11.0988H45.3028H47.0853H47.2592V10.9249V0.533912V0.360021H47.2157ZM47.0418 0.533912V10.9249H45.2593L43.955 6.3598V10.9249H42.1725V0.533912H43.955L45.2593 4.79463V0.533912H47.0418Z" fill="white"/>
<path d="M51.1288 2.40335H49.9984V9.05531H51.1288V2.40335ZM48.042 11.0118V0.446899H51.9114C52.5636 0.446899 53.0853 0.968625 53.0853 1.62078V9.83789C53.0853 10.49 52.5636 11.0118 51.9114 11.0118H48.042Z" fill="white"/>
<path d="M50.0849 2.49033H51.0414V8.96837H50.0849V2.49033ZM51.911 0.359985H48.1285H47.9546V0.533876V10.9248V11.0987H48.1285H51.911C52.6066 11.0987 53.1718 10.5335 53.1718 9.83791V1.62079C53.1718 0.925167 52.6066 0.359985 51.911 0.359985ZM49.911 9.14226H51.2153V2.31644H49.911V9.14226ZM51.911 0.533876C52.5196 0.533876 52.9979 1.01212 52.9979 1.62079V9.83791C52.9979 10.4466 52.4762 10.9248 51.911 10.9248H48.1285V0.533876H51.911Z" fill="white"/>
<path d="M54.085 0.446899H55.9979V11.0118H54.085V0.446899Z" fill="white"/>
<path d="M56.085 0.359985H55.911H54.1285H53.9546V0.533876V10.9248V11.0987H54.1285H55.911H56.085V10.9248V0.533876V0.359985ZM55.9545 10.9248H54.172V0.533876H55.9545V10.9248Z" fill="white"/>
<path d="M59.9546 2.40335H58.8241V5.96845H59.9546V2.40335ZM59.9546 11.0118V7.9249H58.8241V11.0118H56.8677V1.62078C56.8677 0.968625 57.3894 0.446899 58.0416 0.446899H60.7371C61.3893 0.446899 61.911 0.968625 61.911 1.62078V11.0118H59.9546Z" fill="white"/>
<path d="M58.9111 2.49033H59.8676V5.88151H58.9111V2.49033ZM60.7371 0.359985H58.0416C57.346 0.359985 56.7808 0.925167 56.7808 1.62079V10.9248V11.0987H56.9547H58.7372H58.9111V10.9248V8.01188H59.8676V10.9248V11.0987H60.0415H61.8241H61.998V10.9248V3.66421V2.0121V1.62079C62.0414 0.925167 61.4328 0.359985 60.7371 0.359985ZM58.7807 6.05543H60.085V2.31644H58.7807V6.05543ZM60.7371 0.533876C61.3458 0.533876 61.8241 1.01212 61.8241 1.62079V2.0121V3.66421V10.9248H60.0415V7.83796H58.7372V10.9248H56.9547V1.62079C56.9547 1.01212 57.4329 0.533876 58.0416 0.533876H60.7371Z" fill="white"/>
</svg>
