<svg width="19" height="20" viewBox="0 0 19 20" fill="none" xmlns="http://www.w3.org/2000/svg">
<mask id="path-1-inside-1_328_18050" fill="white">
<path fill-rule="evenodd" clip-rule="evenodd" d="M8.95517 10.7463C11.9227 10.7463 14.3283 8.34063 14.3283 5.37313C14.3283 2.40563 11.9227 0 8.95517 0C5.98767 0 3.58203 2.40563 3.58203 5.37313C3.58203 8.34063 5.98767 10.7463 8.95517 10.7463ZM17.8031 16.4588C18.2681 17.5815 18.5075 18.7848 18.5075 20H9.25373L0 20C0 18.7848 0.239355 17.5815 0.704398 16.4588C1.16944 15.3361 1.85107 14.316 2.71035 13.4567C3.56964 12.5974 4.58977 11.9158 5.71248 11.4507C6.8352 10.9857 8.03851 10.7463 9.25373 10.7463C10.4689 10.7463 11.6723 10.9857 12.795 11.4507C13.9177 11.9158 14.9378 12.5974 15.7971 13.4567C16.6564 14.316 17.338 15.3361 17.8031 16.4588Z"/>
</mask>
<path d="M18.5075 20V21H19.5075V20H18.5075ZM17.8031 16.4588L16.8792 16.8415L17.8031 16.4588ZM9.25373 20V19V20ZM0 20H-1V21H2.06117e-07L0 20ZM0.704398 16.4588L-0.219481 16.0761H-0.219482L0.704398 16.4588ZM2.71035 13.4567L3.41746 14.1638H3.41746L2.71035 13.4567ZM5.71248 11.4507L5.3298 10.5268H5.3298L5.71248 11.4507ZM15.7971 13.4567L16.5042 12.7496V12.7496L15.7971 13.4567ZM13.3283 5.37313C13.3283 7.78835 11.3704 9.74627 8.95517 9.74627V11.7463C12.475 11.7463 15.3283 8.89292 15.3283 5.37313H13.3283ZM8.95517 1C11.3704 1 13.3283 2.95792 13.3283 5.37313H15.3283C15.3283 1.85335 12.475 -1 8.95517 -1V1ZM4.58203 5.37313C4.58203 2.95792 6.53995 1 8.95517 1V-1C5.43538 -1 2.58203 1.85335 2.58203 5.37313H4.58203ZM8.95517 9.74627C6.53995 9.74627 4.58203 7.78835 4.58203 5.37313H2.58203C2.58203 8.89292 5.43538 11.7463 8.95517 11.7463V9.74627ZM19.5075 20C19.5075 18.6535 19.2422 17.3202 18.7269 16.0761L16.8792 16.8415C17.294 17.8429 17.5075 18.9162 17.5075 20H19.5075ZM9.25373 21H18.5075V19H9.25373V21ZM2.06117e-07 21L9.25373 21V19L-2.06117e-07 19L2.06117e-07 21ZM-0.219482 16.0761C-0.73478 17.3202 -1 18.6535 -1 20H1C1 18.9162 1.21349 17.8429 1.62828 16.8415L-0.219482 16.0761ZM2.00325 12.7496C1.0511 13.7017 0.295817 14.8321 -0.219481 16.0761L1.62828 16.8415C2.04307 15.8401 2.65103 14.9302 3.41746 14.1638L2.00325 12.7496ZM5.3298 10.5268C4.08576 11.0421 2.95539 11.7974 2.00325 12.7496L3.41746 14.1638C4.18389 13.3973 5.09378 12.7894 6.09516 12.3746L5.3298 10.5268ZM9.25373 9.74632C7.90719 9.74632 6.57384 10.0115 5.3298 10.5268L6.09516 12.3746C7.09655 11.9598 8.16984 11.7463 9.25373 11.7463V9.74632ZM13.1777 10.5268C11.9336 10.0115 10.6003 9.74632 9.25373 9.74632V11.7463C10.3376 11.7463 11.4109 11.9598 12.4123 12.3746L13.1777 10.5268ZM16.5042 12.7496C15.5521 11.7974 14.4217 11.0421 13.1777 10.5268L12.4123 12.3746C13.4137 12.7894 14.3236 13.3973 15.09 14.1638L16.5042 12.7496ZM18.7269 16.0761C18.2116 14.8321 17.4564 13.7017 16.5042 12.7496L15.09 14.1638C15.8564 14.9302 16.4644 15.8401 16.8792 16.8415L18.7269 16.0761Z" fill="#8A8C9E" mask="url(#path-1-inside-1_328_18050)"/>
</svg>
