<svg width="29" height="29" viewBox="0 0 29 29" fill="none" xmlns="http://www.w3.org/2000/svg">
<path d="M24.7609 4.24728C21.7404 1.2254 17.6203 -0.299325 13.2943 0.0488512C7.47826 0.515988 2.38037 4.56064 0.674307 10.1402C-0.54431 14.1268 -0.0322005 18.2889 1.9524 21.7272L0.0722525 27.9697C-0.107639 28.5689 0.439289 29.1332 1.04425 28.9722L7.57836 27.2211C9.69498 28.3759 12.0771 28.9838 14.5027 28.9852H14.5085C20.5943 28.9852 26.2174 25.2626 28.1628 19.496C30.0575 13.8729 28.6561 8.14685 24.7609 4.24728ZM21.5997 19.6628C21.298 20.5086 19.8197 21.3239 19.1552 21.3834C18.4908 21.4443 17.8684 21.6837 14.8103 20.4781C11.1298 19.0274 8.80568 15.254 8.62579 15.0132C8.44444 14.7709 7.14749 13.0503 7.14749 11.2688C7.14749 9.48733 8.08321 8.61109 8.41543 8.24986C8.74765 7.88717 9.13935 7.79723 9.38162 7.79723C9.62244 7.79723 9.86471 7.79723 10.0751 7.80593C10.3333 7.81609 10.6191 7.82914 10.8904 8.4312C11.2124 9.14786 11.9161 10.9381 12.006 11.1194C12.0959 11.3008 12.1569 11.5126 12.0365 11.7534C11.9161 11.9942 11.8551 12.1451 11.6752 12.3569C11.4939 12.5687 11.2951 12.8284 11.1327 12.9909C10.9513 13.1708 10.7627 13.3681 10.9731 13.7293C11.1849 14.092 11.9102 15.2772 12.9867 16.2362C14.3707 17.4693 15.5356 17.8508 15.8983 18.0336C16.261 18.215 16.4714 18.1845 16.6832 17.9422C16.895 17.7014 17.5884 16.8861 17.8292 16.5234C18.0701 16.1607 18.3123 16.2216 18.6446 16.3421C18.9768 16.4625 20.7568 17.3387 21.1181 17.5201C21.4807 17.7014 21.7216 17.7913 21.8115 17.9422C21.9015 18.0916 21.9015 18.817 21.5997 19.6628Z" fill="#35BE49"/>
</svg>
