<svg width="146" height="152" viewBox="0 0 146 152" fill="none" xmlns="http://www.w3.org/2000/svg">
<g filter="url(#filter0_d_0_237)">
<path d="M48.3544 65.152L37.9648 67.1608C37.9648 67.1608 34.3576 65.9944 32.824 60.6808C31.312 55.5184 33.6016 52.0624 33.6016 52.0624L43.2784 48.5632L43.4296 49.0384C43.4296 49.0384 41.7448 52.6024 43.084 57.2896C44.6392 62.7328 48.2464 64.72 48.2464 64.72L48.3544 65.152Z" fill="#FFC727"/>
<g opacity="0.5">
<path d="M48.3544 65.152L37.9648 67.1608C37.9648 67.1608 34.3576 65.9944 32.824 60.6808C31.312 55.5184 33.6016 52.0624 33.6016 52.0624L43.2784 48.5632L43.4296 49.0384C43.4296 49.0384 41.7448 52.6024 43.084 57.2896C44.6392 62.7328 48.2464 64.72 48.2464 64.72L48.3544 65.152Z" fill="black"/>
</g>
<path opacity="0.1" d="M43.2568 48.5632C43.2568 48.5632 40.924 52.4296 42.9112 58.2184C44.8552 63.856 48.3544 65.152 48.3544 65.152L48.2248 64.72C48.2248 64.72 44.6176 62.7328 43.0624 57.2896C41.7448 52.6672 43.3648 49.1464 43.408 49.0384L43.2568 48.5632Z" fill="black"/>
<path d="M71.8768 95.0032L74.3608 92.8C74.3608 92.8 68.9392 81.3952 67.7944 78.328C66.6496 75.2608 65.4184 61.9768 65.4184 61.9768L63.1504 62.0416L59.9536 76.384L71.8768 95.0032Z" fill="#FFC727"/>
<path opacity="0.1" d="M71.8768 95.0032L74.3608 92.8C74.3608 92.8 68.9392 81.3952 67.7944 78.328C66.6496 75.2608 65.4184 61.9768 65.4184 61.9768L63.1504 62.0416L59.9536 76.384L71.8768 95.0032Z" fill="black"/>
<path d="M50.9032 63.7048C50.9032 63.7048 49.9528 77.248 50.9032 82.8424C51.8536 88.4368 55.504 98.308 55.504 98.308L71.8768 95.0032C71.8768 95.0032 66.7576 83.512 65.656 80.4016C63.2584 73.684 63.172 62.0416 63.172 62.0416L50.9032 63.7048Z" fill="#FFC727"/>
<path d="M54.64 99.3016L71.8768 95.0032L74.3824 92.8L69.7384 81.7408L69.1768 81.5248L66.6496 82.8856L51.8752 87.1192L51.7672 86.5792L51.1624 87.8536L54.64 99.3016Z" fill="#37474F"/>
<path d="M51.1624 87.8536L66.9736 83.3176L69.7384 81.7408L69.1768 81.5248L66.6496 82.8856L51.8752 87.1192L51.7672 86.5792L51.1624 87.8536Z" fill="#455A64"/>
<path d="M66.9736 83.3175L71.8768 95.0031L74.3824 92.7999L69.7384 81.7407L66.9736 83.3175Z" fill="#263238"/>
<path opacity="0.15" d="M65.9152 66.664L63.388 66.7288L50.5792 69.8176C50.7088 66.3616 50.8816 63.7048 50.8816 63.7048L63.1504 62.0416L65.4184 61.9768C65.44 61.9768 65.6344 64.0072 65.9152 66.664Z" fill="black"/>
<path d="M89.8696 14.6729C89.8696 14.6729 79.6528 29.4041 64.144 38.4977C54.6616 44.0489 47.8792 46.4464 47.1664 46.684C47.1664 46.684 42.9544 48.9304 44.812 57.2248C47.3608 65.3248 52.1344 65.1736 52.1344 65.1736C52.8472 65.0224 59.9536 63.6833 70.9264 63.7481C88.9192 63.8344 105.141 71.4593 105.141 71.4593C105.162 71.4377 105.162 71.416 105.184 71.3945C101.901 70.2281 98.056 64.6336 94.816 56.5984C94.6 56.08 94.4056 55.5616 94.2112 55.0217C93.0448 51.9113 91.9648 48.4985 91.036 44.848C89.9992 41.2192 89.2216 37.7416 88.6816 34.4584C88.5952 33.8968 88.4872 33.3353 88.4224 32.7737C87.1912 24.1985 87.7096 17.4161 89.9776 14.7593C89.9128 14.7161 89.8912 14.6945 89.8696 14.6729Z" fill="#FFC727"/>
<path d="M89.8696 14.6729C89.8696 14.6729 79.6528 29.4041 64.144 38.4977C54.6616 44.0489 47.8792 46.4464 47.1664 46.684C47.1664 46.684 43.8616 48.4552 44.4016 54.6329C44.4016 54.7192 44.4232 54.784 44.4232 54.8704C44.488 55.6049 44.6176 56.3824 44.812 57.2248C47.3608 65.3248 52.1344 65.1736 52.1344 65.1736C52.8472 65.0224 59.9536 63.6833 70.9264 63.7481C88.9192 63.8344 105.119 71.4593 105.119 71.4593L105.162 71.3945C101.879 70.2281 98.0344 64.6336 94.7944 56.5984C94.5784 56.08 94.384 55.5617 94.1896 55.0217C93.0232 51.9113 91.9432 48.4984 91.0144 44.848C90.604 43.4008 90.2368 41.9753 89.8912 40.5928C89.8912 40.5712 89.8912 40.5713 89.8912 40.5497C89.8048 40.1609 89.7184 39.772 89.632 39.3832C89.416 38.3896 89.2 37.4176 89.0272 36.4672C88.8976 35.7976 88.7896 35.128 88.66 34.4584C88.5736 33.8968 88.4872 33.3353 88.4008 32.7737C88.3144 32.1473 88.228 31.5208 88.1632 30.8944C88.0984 30.376 88.0552 29.8577 87.9904 29.3609C87.9688 29.1017 87.9472 28.8425 87.9256 28.5833C87.3856 22.0169 88.0768 16.9625 89.956 14.7593C89.9128 14.7161 89.8912 14.6945 89.8696 14.6729Z" fill="#FFC727"/>
<path d="M53.9272 65.476L41.5288 67.8736C41.5288 67.8736 37.2304 66.4912 35.3944 60.1624C33.6016 54.0064 36.3232 49.8808 36.3232 49.8808L47.8792 45.712L48.052 46.2736C48.052 46.2736 46.0432 50.5288 47.6416 56.1232C49.4992 62.6248 53.7976 65.0008 53.7976 65.0008L53.9272 65.476Z" fill="#FFC727"/>
<g opacity="0.2">
<path d="M53.9272 65.476L41.5288 67.8736C41.5288 67.8736 37.2304 66.4912 35.3944 60.1624C33.6016 54.0064 36.3232 49.8808 36.3232 49.8808L47.8792 45.712L48.052 46.2736C48.052 46.2736 46.0432 50.5288 47.6416 56.1232C49.4992 62.6248 53.7976 65.0008 53.7976 65.0008L53.9272 65.476Z" fill="black"/>
</g>
<path opacity="0.1" d="M47.8576 45.6904C47.8576 45.6904 45.0712 50.3128 47.4256 57.2248C49.7368 63.964 53.9272 65.4976 53.9272 65.4976L53.776 64.9792C53.776 64.9792 49.456 62.6032 47.62 56.1016C46.0432 50.5936 47.9872 46.3816 48.0304 46.252L47.8576 45.6904Z" fill="black"/>
<g opacity="0.2">
<path d="M37.7488 50.9177C37.6192 50.9177 37.4896 50.8313 37.4464 50.6801C37.4032 50.5073 37.4896 50.3345 37.6624 50.2697L40.4488 49.4273C40.6216 49.3841 40.7944 49.4705 40.8592 49.6433C40.9024 49.8161 40.816 49.9889 40.6432 50.0537L37.8568 50.8961C37.8136 50.9177 37.792 50.9177 37.7488 50.9177Z" fill="black"/>
<path d="M37.5328 52.5161C37.4032 52.5161 37.2736 52.4297 37.2304 52.2785C37.1872 52.1057 37.2736 51.9329 37.4464 51.8681L40.2328 51.0257C40.4056 50.9825 40.5784 51.0689 40.6432 51.2417C40.6864 51.4145 40.6 51.5873 40.4272 51.6521L37.6408 52.4945C37.5976 52.5161 37.5544 52.5161 37.5328 52.5161Z" fill="black"/>
</g>
<g opacity="0.2">
<path d="M41.8096 65.4761C41.68 65.4761 41.5504 65.3681 41.5072 65.2385C41.464 65.0657 41.572 64.8929 41.7448 64.8497L44.5744 64.1585C44.7472 64.1153 44.92 64.2233 44.9632 64.3961C45.0064 64.5689 44.8984 64.7417 44.7256 64.7849L41.896 65.4761C41.8744 65.4761 41.8312 65.4761 41.8096 65.4761Z" fill="black"/>
<path d="M42.9112 66.7073C42.7816 66.7073 42.652 66.5993 42.6088 66.4697C42.5656 66.2969 42.6736 66.124 42.8464 66.0808L45.676 65.3897C45.8488 65.3465 46.0216 65.4545 46.0648 65.6273C46.108 65.8001 46 65.9729 45.8272 66.0161L42.9976 66.7073C42.976 66.7073 42.9544 66.7073 42.9112 66.7073Z" fill="black"/>
</g>
<path opacity="0.1" d="M105.162 71.3511L105.119 71.4159C105.119 71.4159 88.8976 63.7911 70.9264 63.7263C62.524 63.6831 56.4112 64.4607 53.668 64.8927C53.7328 64.9359 53.776 64.9575 53.776 64.9575L53.9272 65.4759L41.5288 67.8735C41.5288 67.8735 37.2304 66.4911 35.3944 60.1623C33.6016 54.0063 36.3232 49.8807 36.3232 49.8807C36.0424 52.1703 38.8936 57.2031 42.8248 56.9655C45.784 56.7927 47.0152 51.6087 47.0152 51.6087C47.0152 51.6087 56.5624 60.7887 76.4128 57.4623C82.9792 56.3607 90.2584 52.0623 91.9648 48.2391C92.656 50.6151 93.412 52.8615 94.2112 54.9783C94.4056 55.5183 94.6216 56.0367 94.816 56.5551C98.0344 64.5903 101.879 70.2063 105.162 71.3511Z" fill="black"/>
<path d="M89.8696 14.5216C90.3232 14.0032 90.8416 13.636 91.4464 13.4632C96.3928 11.9728 104.277 23.7232 109.029 39.6856C113.781 55.648 113.63 69.796 108.683 71.2648C108.575 71.2864 108.489 71.308 108.402 71.3296C108.381 71.3296 108.338 71.3512 108.316 71.3512C106.48 71.6536 104.277 70.2496 102.009 67.6144C98.8984 63.964 95.6368 57.9376 92.9584 50.6368C92.2888 48.844 91.684 46.9864 91.1008 45.0424C90.2368 42.1264 89.524 39.2536 88.984 36.5104C86.9104 26.0992 87.2128 17.5456 89.8696 14.5216Z" fill="#FFC727"/>
<path opacity="0.6" d="M89.8696 14.5216C90.3232 14.0032 90.8416 13.636 91.4464 13.4632C96.3928 11.9728 104.277 23.7232 109.029 39.6856C113.781 55.648 113.63 69.796 108.683 71.2648C108.575 71.2864 108.489 71.308 108.402 71.3296C108.381 71.3296 108.338 71.3512 108.316 71.3512C106.48 71.6536 104.277 70.2496 102.009 67.6144C98.8984 63.964 95.6368 57.9376 92.9584 50.6368C92.2888 48.844 91.684 46.9864 91.1008 45.0424C90.2368 42.1264 89.524 39.2536 88.984 36.5104C86.9104 26.0992 87.2128 17.5456 89.8696 14.5216Z" fill="black"/>
<path opacity="0.2" d="M111.815 52.0407L90.82 44.1351C90.9064 44.4375 90.9928 44.7399 91.0792 45.0207C91.6624 46.9431 92.2672 48.8223 92.9368 50.6151C95.6152 57.9375 98.8768 63.9639 101.987 67.5927C104.255 70.2495 106.458 71.6319 108.273 71.3295C108.294 71.3295 108.338 71.3295 108.359 71.3079C108.467 71.2863 108.554 71.2647 108.64 71.2431C112.29 70.1847 113.349 62.3871 111.815 52.0407Z" fill="black"/>
<path d="M89.2216 37.72C90.4744 36.7048 92.0512 36.0568 93.7792 35.9488C98.1856 35.6896 101.944 39.0592 102.203 43.4656C102.462 47.872 99.0928 51.6304 94.6864 51.8896C94.168 51.9112 93.6712 51.9112 93.196 51.8464C92.5264 50.0536 91.9216 48.196 91.3384 46.252C90.4744 43.336 89.7616 40.4632 89.2216 37.72Z" fill="#FFC727"/>
<path d="M92.0944 12.124C94.8592 11.9728 98.0344 14.4352 101.339 19.36C104.73 24.4144 107.884 31.4992 110.217 39.34C112.55 47.1808 113.802 54.8272 113.738 60.9184C113.673 67.5496 112.053 71.5456 109.05 72.4312C108.921 72.4744 108.813 72.496 108.705 72.5176C108.618 72.5392 108.532 72.5608 108.467 72.5608C106.221 72.9064 103.758 71.4808 101.102 68.392C97.7968 64.5472 94.5136 58.3696 91.8136 51.0256C91.144 49.2328 90.5176 47.332 89.9344 45.3664C89.0488 42.4072 88.336 39.4912 87.796 36.7264C85.5928 25.6672 86.0464 17.0704 88.984 13.7008C89.5888 12.988 90.3232 12.5128 91.1224 12.2752C91.4248 12.1888 91.7488 12.124 92.0944 12.124ZM108.186 70.12C108.23 70.0984 108.294 70.0984 108.338 70.0768C110.087 69.5584 111.21 66.0376 111.275 60.8752C111.34 55.0216 110.13 47.6128 107.862 40.0096C105.594 32.4064 102.549 25.5376 99.3088 20.6992C96.436 16.4224 93.5848 14.0896 91.8136 14.6296C91.4464 14.7376 91.1224 14.9536 90.82 15.3208C88.876 17.5456 87.9256 24.868 90.1936 36.2512C90.712 38.9512 91.4248 41.7808 92.2888 44.6752C92.8504 46.5976 93.4768 48.4552 94.1248 50.1832C96.6736 57.16 99.892 63.208 102.959 66.7936C104.946 69.1264 106.826 70.3144 108.122 70.12H108.186Z" fill="#FFC727"/>
<path opacity="0.2" d="M92.0944 12.124C94.8592 11.9728 98.0344 14.4352 101.339 19.36C104.73 24.4144 107.884 31.4992 110.217 39.34C112.55 47.1808 113.802 54.8272 113.738 60.9184C113.673 67.5496 112.053 71.5456 109.05 72.4312C108.921 72.4744 108.813 72.496 108.705 72.5176C108.618 72.5392 108.532 72.5608 108.467 72.5608C106.221 72.9064 103.758 71.4808 101.102 68.392C97.7968 64.5472 94.5136 58.3696 91.8136 51.0256C91.144 49.2328 90.5176 47.332 89.9344 45.3664C89.0488 42.4072 88.336 39.4912 87.796 36.7264C85.5928 25.6672 86.0464 17.0704 88.984 13.7008C89.5888 12.988 90.3232 12.5128 91.1224 12.2752C91.4248 12.1888 91.7488 12.124 92.0944 12.124ZM108.186 70.12C108.23 70.0984 108.294 70.0984 108.338 70.0768C110.087 69.5584 111.21 66.0376 111.275 60.8752C111.34 55.0216 110.13 47.6128 107.862 40.0096C105.594 32.4064 102.549 25.5376 99.3088 20.6992C96.436 16.4224 93.5848 14.0896 91.8136 14.6296C91.4464 14.7376 91.1224 14.9536 90.82 15.3208C88.876 17.5456 87.9256 24.868 90.1936 36.2512C90.712 38.9512 91.4248 41.7808 92.2888 44.6752C92.8504 46.5976 93.4768 48.4552 94.1248 50.1832C96.6736 57.16 99.892 63.208 102.959 66.7936C104.946 69.1264 106.826 70.3144 108.122 70.12H108.186Z" fill="black"/>
</g>
<path d="M119.462 34.5232L111.405 35.3008L111.858 33.7672L114.105 36.2728L115.077 37.3528C114.364 37.3312 106.955 37.0288 106.026 36.9856L113.673 36.1L113.284 37.1368L110.649 35.0632L109.266 33.9832C110.433 33.7024 117.647 31.9744 118.965 31.6504L119.462 34.5232Z" fill="#FFCE41"/>
<path d="M94.2112 20.6344L95.5504 26.596L94.3624 26.4016L96.0256 24.4792L96.76 23.6368C96.8032 24.1768 97.2784 29.7712 97.3432 30.4624L95.9608 24.8032L96.7816 24.9976L95.464 27.1792L94.7728 28.324C94.4488 27.4816 92.4616 22.2328 92.116 21.2608L94.2112 20.6344Z" fill="#FFCE41"/>
<path d="M109.482 12.5128L103.715 23.7016L102.095 21.8008L107.258 20.98L109.504 20.6128C108.856 21.52 102.246 30.9808 101.404 32.1472L106.696 21.412L107.733 22.7944L102.786 24.5008L100.194 25.3864C100.799 23.6368 104.601 12.7288 105.292 10.72L109.482 12.5128Z" fill="#FFCE41"/>
<path d="M117.302 61.4151L110.411 57.1815L111.707 56.2311L111.988 59.5791L112.118 61.0479C111.556 60.5943 105.832 55.8855 105.119 55.2807L111.75 59.1903L110.822 59.7735L109.958 56.5119L109.504 54.8055C110.606 55.2807 117.41 58.2615 118.662 58.8015L117.302 61.4151Z" fill="#FFCE41"/>
<path d="M107.063 66.9664L105.054 61.1776L106.264 61.2424L104.817 63.3376L104.19 64.2448C104.082 63.7048 102.981 58.2184 102.851 57.5272L104.86 62.992L104.039 62.884L105.098 60.5728L105.659 59.3632C106.07 60.1624 108.64 65.1736 109.115 66.0808L107.063 66.9664Z" fill="#FFCE41"/>
<defs>
<filter id="filter0_d_0_237" x="0.307602" y="0.117432" width="145.432" height="151.184" filterUnits="userSpaceOnUse" color-interpolation-filters="sRGB">
<feFlood flood-opacity="0" result="BackgroundImageFix"/>
<feColorMatrix in="SourceAlpha" type="matrix" values="0 0 0 0 0 0 0 0 0 0 0 0 0 0 0 0 0 0 127 0" result="hardAlpha"/>
<feOffset dy="20"/>
<feGaussianBlur stdDeviation="16"/>
<feComposite in2="hardAlpha" operator="out"/>
<feColorMatrix type="matrix" values="0 0 0 0 0.0392157 0 0 0 0 0.0470588 0 0 0 0 0.0941176 0 0 0 0.4 0"/>
<feBlend mode="normal" in2="BackgroundImageFix" result="effect1_dropShadow_0_237"/>
<feBlend mode="normal" in="SourceGraphic" in2="effect1_dropShadow_0_237" result="shape"/>
</filter>
</defs>
</svg>
