<svg width="7" height="9" viewBox="0 0 7 9" fill="none" xmlns="http://www.w3.org/2000/svg">
<path fill-rule="evenodd" clip-rule="evenodd" d="M1.34918 3.85534C1.15005 2.07288 2.19165 0.819181 4.14418 0.105408C2.94827 1.65673 5.16346 3.33741 5.2856 4.94866C5.57189 4.46028 5.73441 3.80806 5.76659 2.93686C7.23058 5.2338 6.01694 8.98768 2.79494 8.44824C2.49913 8.39883 2.21414 8.30542 1.95427 8.16638C0.779537 7.53863 0.0775833 6.17166 0.0775833 4.86608C0.0775833 4.03395 0.433485 3.29096 0.894121 2.70063C0.955682 3.27897 1.08668 3.71039 1.34918 3.85534Z" fill="#E20919"/>
<path fill-rule="evenodd" clip-rule="evenodd" d="M2.3618 6.22112C2.00347 5.27465 2.05304 3.7466 3.05664 3.21049C3.0637 4.96737 4.75672 5.19077 4.4427 7.06632C4.73226 6.73162 4.87786 6.19601 4.90396 5.77366C5.36291 6.84685 5.0031 7.706 4.34897 8.14346C2.36033 9.47305 0.647776 6.77726 1.78647 5.29944C1.82061 5.62888 2.21555 6.13856 2.3618 6.22112Z" fill="url(#paint0_linear_0_564)"/>
<defs>
<linearGradient id="paint0_linear_0_564" x1="2.76167" y1="4.80913" x2="2.76167" y2="8.32582" gradientUnits="userSpaceOnUse">
<stop stop-color="#FB6404"/>
<stop offset="1" stop-color="#F2BE10"/>
</linearGradient>
</defs>
</svg>
