<svg width="7" height="9" viewBox="0 0 7 9" fill="none" xmlns="http://www.w3.org/2000/svg">
<path fill-rule="evenodd" clip-rule="evenodd" d="M1.34918 3.9183C1.15005 2.13584 2.19165 0.882138 4.14418 0.168365C2.94827 1.71969 5.16346 3.40037 5.2856 5.01161C5.57189 4.52323 5.73441 3.87102 5.76659 2.99982C7.23058 5.29676 6.01694 9.05064 2.79494 8.5112C2.49913 8.46179 2.21414 8.36838 1.95427 8.22934C0.779537 7.60158 0.0775833 6.23461 0.0775833 4.92904C0.0775833 4.09691 0.433485 3.35391 0.894121 2.76359C0.955682 3.34193 1.08668 3.77335 1.34918 3.9183Z" fill="#E20919"/>
<path fill-rule="evenodd" clip-rule="evenodd" d="M2.3618 6.28385C2.00347 5.33738 2.05304 3.80933 3.05664 3.27322C3.0637 5.03009 4.75672 5.2535 4.4427 7.12905C4.73226 6.79435 4.87786 6.25874 4.90396 5.83639C5.36291 6.90958 5.0031 7.76873 4.34897 8.20618C2.36033 9.53578 0.647776 6.83998 1.78647 5.36216C1.82061 5.69161 2.21555 6.20129 2.3618 6.28385Z" fill="url(#paint0_linear_0_553)"/>
<defs>
<linearGradient id="paint0_linear_0_553" x1="2.76167" y1="4.87186" x2="2.76167" y2="8.38855" gradientUnits="userSpaceOnUse">
<stop stop-color="#FB6404"/>
<stop offset="1" stop-color="#F2BE10"/>
</linearGradient>
</defs>
</svg>
