<svg width="62" height="12" viewBox="0 0 62 12" fill="none" xmlns="http://www.w3.org/2000/svg">
<path d="M5.04328 11.0116V6.44659L4.47809 8.53346H2.60859L2.04338 6.44659V11.0116H0.130415V0.446777H2.04338L3.56506 5.27271L5.08675 0.446777H6.99973V11.0116H5.04328Z" fill="white"/>
<path d="M7.0867 0.359863H6.91278H5.13025H5.04329L4.99982 0.490288L3.56507 5.01185L2.13034 0.490288L2.08688 0.359863H1.95645H0.173891H0V0.533754V10.9247V11.0986H0.173891H1.95645H2.13034V10.9247V7.09876L2.52164 8.48999L2.56511 8.62044H2.69554H4.4346H4.56506L4.60852 8.48999L4.99982 7.05526V10.9247V11.0986H5.17371H6.95628H7.13017V10.9247V0.533754V0.359863H7.0867ZM6.91278 0.533754V10.9247H5.13025V5.83792L4.4346 8.48999H2.69554L1.99992 5.83792V10.9682H0.217384V0.577247H1.99992L3.60856 5.62054L5.21721 0.577247H6.91278V0.533754Z" fill="white"/>
<path d="M11.0866 2.40323H9.95617V5.96833H11.0866V2.40323ZM11.0866 11.0116V7.92478H9.95617V11.0116H7.99972V1.62065C7.99972 0.968503 8.52145 0.446777 9.1736 0.446777H11.8692C12.5213 0.446777 13.043 0.968503 13.043 1.62065V11.0116H11.0866Z" fill="white"/>
<path d="M10.0431 2.49021H10.9996V5.88139H10.0431V2.49021ZM11.8692 0.359863H9.17359C8.47796 0.359863 7.91275 0.925045 7.91275 1.62067V10.9247V11.0986H8.08667H9.86921H10.0431V10.9247V8.01176H10.9996V10.9247V11.0986H11.1735H12.9561H13.13V10.9247V3.66408V2.01197V1.62067C13.13 0.925045 12.5648 0.359863 11.8692 0.359863ZM9.86921 6.0553H11.1735V2.31632H9.86921V6.0553ZM11.8692 0.533754C12.4778 0.533754 12.9561 1.012 12.9561 1.62067V2.01197V3.66408V10.9247H11.1735V7.83784H9.86921V10.9247H8.08667V1.62067C8.08667 1.012 8.56492 0.533754 9.17359 0.533754H11.8692Z" fill="white"/>
<path d="M17.3037 11.0116L17.2602 10.8812L15.9559 6.70744H15.9125V11.0116H13.956V0.446777H15.9125V4.70752L17.2602 0.446777H19.2602L17.5646 5.70748L19.2602 11.0116H17.3037Z" fill="white"/>
<path d="M19.3906 0.359863H19.1732H17.3472H17.2168L17.1733 0.490288L15.9994 4.18581V0.533754V0.359863H15.8255H14.043H13.8691V0.533754V10.9247V11.0986H14.043H15.8255H15.9994V10.9247V7.18569L17.1733 10.9247V10.9682L17.2168 11.0986H17.3472H19.1298H19.3471L19.2602 10.8812L17.6081 5.7075L19.2602 0.577247L19.3906 0.359863ZM19.1732 0.533754L17.5211 5.7075L19.1732 10.9247H17.3907V10.8812L16.0429 6.6205H15.869V10.9682H14.0864V0.577247H15.869V4.88143H15.9994L17.3472 0.577247H19.1732V0.533754Z" fill="white"/>
<path d="M19.608 11.0116V0.446777H24.6513V2.40323H21.5644V4.75098H24.0426V6.70744H21.5644V9.05519H24.6513V11.0116H19.608Z" fill="white"/>
<path d="M24.7382 0.359863H24.5644H19.695H19.521V0.533754V10.9247V11.0986H19.695H24.5644H24.7382V10.9247V9.14214V8.96825H24.5644H21.6514V6.79441H23.9557H24.1296V6.6205V4.83796V4.66404H23.9557H21.6514V2.49021H24.5644H24.7382V2.31632V0.533754V0.359863ZM24.5644 0.533754V2.31632H21.4775V4.83796H23.9557V6.6205H21.4775V9.14214H24.5644V10.9247H19.695V0.533754H24.5644Z" fill="white"/>
<path d="M27.8251 0.446777H29.7816V11.0116H27.8251V0.446777Z" fill="white"/>
<path d="M29.8685 0.359863H29.6946H27.9121H27.7382V0.533754V10.9247V11.0986H27.9121H29.6946H29.8685V10.9247V0.533754V0.359863ZM29.6946 10.9247H27.9121V0.533754H29.6946V10.9247Z" fill="white"/>
<path d="M33.7814 11.0116L32.6075 6.96829V11.0116H30.6511V0.446777H32.564L33.7379 4.22926V0.446777H35.6944V11.0116H33.7814Z" fill="white"/>
<path d="M35.7814 0.359899H35.6075H33.8249H33.651V0.53379V3.66412L32.651 0.446831L32.6076 0.316406H32.4771H30.6946H30.5207V0.490324V10.8812V11.0552H30.6946H32.4771H32.651V10.8812V7.57703L33.651 10.9682L33.6945 11.0986H33.8249H35.6075H35.7814V10.9247V0.53379V0.359899ZM35.6075 0.53379V10.9247H33.8249L32.5206 6.35968V10.9247H30.7381V0.53379H32.5206L33.8249 4.7945V0.53379H35.6075Z" fill="white"/>
<path d="M39.2595 0.446777H41.216V11.0116H39.2595V0.446777Z" fill="white"/>
<path d="M41.3029 0.359863H41.129H39.3464H39.1725V0.533754V10.9247V11.0986H39.3464H41.129H41.3029V10.9247V0.533754V0.359863ZM41.129 10.9247H39.3464V0.533754H41.129V10.9247Z" fill="white"/>
<path d="M45.2158 11.0116L44.0419 6.96829V11.0116H42.0854V0.446777H43.9984L45.1723 4.22926V0.446777H47.1287V11.0116H45.2158Z" fill="white"/>
<path d="M47.2157 0.359899H47.0418H45.2593H45.0853V0.53379V3.66412L44.0854 0.446831L44.0419 0.316406H43.9115H42.1289H41.9985V0.490324V10.8812V11.0552H42.1724H43.955H44.1289V10.8812V7.57703L45.1288 10.9682L45.1723 11.0986H45.3027H47.0853H47.2592V10.9247V0.53379V0.359899H47.2157ZM47.0418 0.53379V10.9247H45.2593L43.955 6.35968V10.9247H42.1724V0.53379H43.955L45.2593 4.7945V0.53379H47.0418Z" fill="white"/>
<path d="M51.1286 2.40323H49.9983V9.05519H51.1286V2.40323ZM48.0418 11.0116V0.446777H51.9112C52.5634 0.446777 53.0851 0.968503 53.0851 1.62065V9.83777C53.0851 10.4899 52.5634 11.0116 51.9112 11.0116H48.0418Z" fill="white"/>
<path d="M50.0852 2.49021H51.0416V8.96825H50.0852V2.49021ZM51.9112 0.359863H48.1287H47.9548V0.533754V10.9247V11.0986H48.1287H51.9112C52.6068 11.0986 53.172 10.5334 53.172 9.83778V1.62067C53.172 0.925045 52.6068 0.359863 51.9112 0.359863ZM49.9113 9.14214H51.2156V2.31632H49.9113V9.14214ZM51.9112 0.533754C52.5199 0.533754 52.9981 1.012 52.9981 1.62067V9.83778C52.9981 10.4465 52.4764 10.9247 51.9112 10.9247H48.1287V0.533754H51.9112Z" fill="white"/>
<path d="M54.085 0.446777H55.998V11.0116H54.085V0.446777Z" fill="white"/>
<path d="M56.085 0.359863H55.9111H54.1285H53.9546V0.533754V10.9247V11.0986H54.1285H55.9111H56.085V10.9247V0.533754V0.359863ZM55.9545 10.9247H54.172V0.533754H55.9545V10.9247Z" fill="white"/>
<path d="M59.9544 2.40323H58.824V5.96833H59.9544V2.40323ZM59.9544 11.0116V7.92478H58.824V11.0116H56.8675V1.62065C56.8675 0.968503 57.3893 0.446777 58.0414 0.446777H60.737C61.3891 0.446777 61.9109 0.968503 61.9109 1.62065V11.0116H59.9544Z" fill="white"/>
<path d="M58.9109 2.49021H59.8674V5.88139H58.9109V2.49021ZM60.7369 0.359863H58.0414C57.3458 0.359863 56.7806 0.925045 56.7806 1.62067V10.9247V11.0986H56.9545H58.737H58.9109V10.9247V8.01176H59.8674V10.9247V11.0986H60.0413H61.8239H61.9978V10.9247V3.66408V2.01197V1.62067C62.0412 0.925045 61.4326 0.359863 60.7369 0.359863ZM58.7805 6.0553H60.0848V2.31632H58.7805V6.0553ZM60.7369 0.533754C61.3456 0.533754 61.8239 1.012 61.8239 1.62067V2.01197V3.66408V10.9247H60.0413V7.83784H58.737V10.9247H56.9545V1.62067C56.9545 1.012 57.4327 0.533754 58.0414 0.533754H60.7369Z" fill="white"/>
</svg>
