<svg width="35" height="35" viewBox="0 0 35 35" fill="none" xmlns="http://www.w3.org/2000/svg">
<path d="M17.5038 35C21.7111 35.0002 25.7761 33.4762 28.9462 30.71L16.6213 18.385C16.5048 18.2689 16.4124 18.131 16.3493 17.9791C16.2863 17.8273 16.2538 17.6644 16.2538 17.5V0.0637817C11.7324 0.384165 7.51194 2.44736 4.48196 5.81855C1.45198 9.18973 -0.150879 13.6056 0.0111955 18.1354C0.17327 22.6652 2.08762 26.9552 5.35078 30.1012C8.61394 33.2473 12.971 35.0036 17.5038 35Z" fill="#FFAA00"/>
<path d="M18.7537 0.0637817V16.25H34.9399C34.6354 12.0579 32.8323 8.11548 29.8603 5.14343C26.8882 2.17137 22.9457 0.368272 18.7537 0.0637817Z" fill="#35BE49"/>
<path d="M20.5212 18.7503L30.7137 28.9428C33.191 26.0938 34.6744 22.5163 34.94 18.7503H20.5212Z" fill="#1F7AE0"/>
</svg>
