<svg width="39" height="39" viewBox="0 0 39 39" fill="none" xmlns="http://www.w3.org/2000/svg">
<path d="M32.5307 6.45495C28.5594 2.48177 23.1423 0.477051 17.4543 0.934835C9.80742 1.54903 3.10469 6.86696 0.861546 14.203C-0.7407 19.4446 -0.0673753 24.917 2.542 29.4376L0.0699602 37.6453C-0.166562 38.4331 0.552541 39.1751 1.34794 38.9634L9.93903 36.6611C12.722 38.1794 15.854 38.9786 19.0432 38.9805H19.0508C27.0525 38.9805 34.4458 34.0861 37.0036 26.504C39.4947 19.1108 37.6522 11.5821 32.5307 6.45495ZM28.3744 26.7234C27.9776 27.8354 26.034 28.9074 25.1604 28.9856C24.2868 29.0657 23.4685 29.3804 19.4476 27.7953C14.6084 25.8879 11.5527 20.9267 11.3162 20.61C11.0778 20.2915 9.37252 18.0293 9.37252 15.6869C9.37252 13.3446 10.6028 12.1925 11.0396 11.7176C11.4764 11.2407 11.9914 11.1224 12.31 11.1224C12.6266 11.1224 12.9452 11.1224 13.2217 11.1339C13.5613 11.1472 13.937 11.1644 14.2937 11.956C14.7172 12.8983 15.6423 15.252 15.7605 15.4905C15.8788 15.7289 15.9589 16.0074 15.8006 16.324C15.6423 16.6407 15.5622 16.839 15.3256 17.1175C15.0872 17.396 14.8259 17.7374 14.6122 17.9511C14.3738 18.1876 14.1259 18.447 14.4024 18.922C14.6809 19.3988 15.6346 20.9572 17.0499 22.218C18.8696 23.8393 20.4013 24.341 20.8782 24.5813C21.355 24.8197 21.6316 24.7797 21.9101 24.4611C22.1886 24.1445 23.1003 23.0725 23.417 22.5957C23.7336 22.1188 24.0521 22.1989 24.4889 22.3572C24.9258 22.5156 27.2662 23.6677 27.7411 23.9061C28.218 24.1445 28.5346 24.2628 28.6529 24.4611C28.7711 24.6576 28.7711 25.6113 28.3744 26.7234Z" fill="#35BE49"/>
</svg>
