<svg width="21" height="20" viewBox="0 0 21 20" fill="none" xmlns="http://www.w3.org/2000/svg">
<path fill-rule="evenodd" clip-rule="evenodd" d="M20.5 9.74307C20.5 15.1229 16.1046 19.4851 10.6825 19.4851C8.96096 19.4851 7.34298 19.0457 5.93617 18.2734L0.5 20L2.27183 14.773C1.37787 13.3048 0.863015 11.5823 0.863015 9.74207C0.86402 4.36221 5.25941 0 10.6825 0C16.1056 0 20.5 4.36221 20.5 9.74307ZM10.6825 1.55161C6.13025 1.55161 2.4277 5.225 2.4277 9.74307C2.4277 11.534 3.01094 13.1942 3.99942 14.5457L2.9687 17.5876L6.1403 16.58C7.44354 17.4348 9.0052 17.9345 10.6825 17.9345C15.2338 17.9345 18.9363 14.2601 18.9363 9.74408C18.9363 5.22802 15.2328 1.55161 10.6825 1.55161ZM15.64 11.9865C15.5797 11.887 15.4188 11.8266 15.1785 11.708C14.9381 11.5883 13.7536 11.0101 13.5333 10.9317C13.3131 10.8522 13.1512 10.812 12.9923 11.0503C12.8314 11.2897 12.3709 11.8276 12.2291 11.9865C12.0893 12.1464 11.9495 12.1655 11.7082 12.0459C11.4669 11.9272 10.6916 11.6738 9.77246 10.8613C9.05749 10.2278 8.57481 9.44643 8.43303 9.2071C8.29325 8.96878 8.41895 8.83906 8.53861 8.7204C8.64722 8.6128 8.77995 8.44185 8.89962 8.30308C9.02029 8.16331 9.06051 8.06275 9.13995 7.90387C9.2204 7.74398 9.18017 7.60521 9.11984 7.48655C9.06051 7.36689 8.57884 6.19237 8.37772 5.71371C8.17862 5.23606 7.9775 5.25416 7.83672 5.25416C7.69594 5.25416 7.4365 5.29539 7.4365 5.29539C7.4365 5.29539 6.95382 5.35472 6.7336 5.59405C6.51337 5.83237 5.89192 6.41058 5.89192 7.5851C5.89192 8.75962 6.75371 9.89592 6.87337 10.0548C6.99404 10.2147 8.53761 12.7045 10.9852 13.6608C13.4318 14.6171 13.4318 14.2973 13.8732 14.2571C14.3137 14.2179 15.2971 13.6799 15.4972 13.1218C15.6983 12.5637 15.6983 12.0861 15.638 11.9865H15.64Z" fill="white"/>
</svg>
