<svg width="29" height="29" viewBox="0 0 29 29" fill="none" xmlns="http://www.w3.org/2000/svg">
<path d="M24.7418 4.24728C21.7214 1.2254 17.6013 -0.299325 13.2752 0.0488512C7.45921 0.515988 2.36133 4.56064 0.655264 10.1402C-0.563353 14.1268 -0.0512434 18.2889 1.93336 21.7272L0.0532095 27.9697C-0.126682 28.5689 0.420246 29.1332 1.0252 28.9722L7.55931 27.2211C9.67593 28.3759 12.058 28.9838 14.4837 28.9852H14.4895C20.5753 28.9852 26.1984 25.2626 28.1438 19.496C30.0385 13.8729 28.637 8.14685 24.7418 4.24728ZM21.5807 19.6628C21.2789 20.5086 19.8006 21.3239 19.1362 21.3834C18.4717 21.4443 17.8494 21.6837 14.7912 20.4781C11.1107 19.0274 8.78663 15.254 8.60674 15.0132C8.4254 14.7709 7.12844 13.0503 7.12844 11.2688C7.12844 9.48733 8.06417 8.61109 8.39639 8.24986C8.7286 7.88717 9.1203 7.79723 9.36258 7.79723C9.6034 7.79723 9.84567 7.79723 10.056 7.80593C10.3143 7.81609 10.6001 7.82914 10.8713 8.4312C11.1934 9.14786 11.897 10.9381 11.987 11.1194C12.0769 11.3008 12.1378 11.5126 12.0174 11.7534C11.897 11.9942 11.8361 12.1451 11.6562 12.3569C11.4748 12.5687 11.2761 12.8284 11.1136 12.9909C10.9323 13.1708 10.7437 13.3681 10.954 13.7293C11.1658 14.092 11.8912 15.2772 12.9677 16.2362C14.3517 17.4693 15.5166 17.8508 15.8793 18.0336C16.242 18.215 16.4523 18.1845 16.6641 17.9422C16.8759 17.7014 17.5694 16.8861 17.8102 16.5234C18.051 16.1607 18.2933 16.2216 18.6255 16.3421C18.9577 16.4625 20.7378 17.3387 21.099 17.5201C21.4617 17.7014 21.7025 17.7913 21.7925 17.9422C21.8824 18.0916 21.8824 18.817 21.5807 19.6628Z" fill="#35BE49"/>
</svg>
