<svg width="30" height="29" viewBox="0 0 30 29" fill="none" xmlns="http://www.w3.org/2000/svg">
<path d="M12.3439 8.03622L21.4161 20.9638H19.0042L9.94818 8.03622H12.3439ZM29.9807 23.75C29.9807 26.6495 27.6302 29 24.7307 29H6.23074C3.33124 29 0.980736 26.6495 0.980736 23.75V5.25C0.980736 2.35051 3.33124 0 6.23074 0H24.7307C27.6302 0 29.9807 2.35051 29.9807 5.25V23.75ZM24.4031 22.5556L17.659 12.905L23.1722 6.44444H21.06L16.7036 11.5356L13.1478 6.44444H6.94507L13.2945 15.5198L7.27374 22.5556H9.42135L14.2563 16.8909L18.2164 22.5556H24.4031Z" fill="white"/>
</svg>
