<svg width="62" height="29" viewBox="0 0 62 29" fill="none" xmlns="http://www.w3.org/2000/svg">
<path fill-rule="evenodd" clip-rule="evenodd" d="M61.9868 10.3921C61.9411 10.6912 61.7585 10.9673 61.4846 11.0824C61.3932 11.1284 61.2791 11.1514 61.165 11.1514C61.0965 11.5195 60.9139 11.7956 60.5715 11.9567C60.1834 12.1408 59.704 12.1638 59.2247 12.1868C58.5855 12.2098 57.718 12.2558 57.1245 12.4629C56.5538 13.2912 57.5582 13.6134 58.0376 12.9001C58.5626 13.1072 59.2703 13.5904 58.8594 14.2116C58.8137 14.2576 58.7909 14.3266 58.7453 14.3957C58.6539 14.5798 58.654 14.8329 58.6768 15.063C58.6768 15.3161 58.6996 15.5922 58.6083 15.8453C58.5398 16.0293 58.4029 16.1674 58.2431 16.2594C57.992 16.3745 57.6724 16.3515 57.3756 16.3285C57.2386 16.3054 57.1245 16.3054 57.0104 16.3054H56.8506L56.8049 16.1674C56.7593 16.0063 56.7365 15.8683 56.7365 15.7762C56.7365 15.7072 56.7365 15.6612 56.7136 15.6152C56.6908 15.5922 56.6908 15.5691 56.668 15.5461C56.6451 15.5231 56.5767 15.4771 56.5082 15.4541C56.4169 15.4081 56.3484 15.3621 56.3027 15.3621C56.2799 15.086 56.2343 14.8099 56.1429 14.5337C56.0745 14.3267 55.9831 14.1426 55.869 13.9585C55.7549 13.7744 55.5951 13.6134 55.4581 13.4753C55.2983 13.3373 55.1385 13.1992 54.9787 13.0841C54.8189 12.9691 54.6591 12.831 54.5222 12.716C54.3852 12.5779 54.2483 12.4399 54.1341 12.3018C54.0885 12.2328 54.02 12.1408 53.9972 12.0717C53.9515 11.9797 53.9287 11.8877 53.883 11.8186C53.8145 11.6346 53.7917 11.4505 53.7689 11.2664C53.7461 11.0824 53.7689 10.8753 53.8145 10.6912C53.883 10.3 54.02 9.93188 54.1798 9.56374C54.3396 9.19559 54.4994 8.80444 54.5907 8.39027C54.7048 7.99911 54.7505 7.56193 54.682 7.14776C54.682 7.56193 54.5907 7.9531 54.4537 8.32124C54.3167 8.68939 54.1341 9.05754 53.9515 9.42568C53.7689 9.79383 53.6091 10.185 53.5178 10.5992C53.4721 10.8062 53.4493 11.0363 53.4493 11.2434C53.4493 11.4735 53.4949 11.6806 53.5634 11.8877C53.6091 12.0027 53.6319 12.0948 53.7004 12.1868C53.746 12.2788 53.8145 12.3939 53.883 12.4629C54.02 12.647 54.1798 12.785 54.3396 12.9231C54.6592 13.1992 55.0244 13.4063 55.3211 13.6594C55.6179 13.9125 55.869 14.2116 56.0288 14.5797C56.1429 14.8328 56.2342 15.132 56.3027 15.4081C56.3256 15.5231 56.3484 15.6382 56.3712 15.7532C56.4625 16.1214 56.4854 16.4205 56.0288 16.8807C55.9147 16.9957 55.7549 17.1108 55.5951 17.2028C55.5266 17.2488 55.4353 17.2948 55.3896 17.3409C55.2527 17.4559 55.1385 17.594 55.0472 17.755C55.0472 17.778 55.0472 17.778 55.0472 17.801L55.07 18.2382L54.7276 17.9851C54.4309 17.755 54.2939 17.4329 54.1798 17.1338C54.0885 16.9037 53.9972 16.6966 53.8602 16.5586C53.7004 16.9727 53.358 17.4329 53.1069 17.663C52.9927 17.778 52.8786 17.8931 52.7645 18.0081C52.5818 18.1922 52.3764 18.3993 52.1938 18.5604L51.9655 18.7444L51.8742 18.4683C51.8285 18.3303 51.8285 18.0772 51.8285 17.8241C51.8285 17.755 51.8285 17.663 51.8285 17.5709C51.897 17.3639 51.9427 17.1568 51.9655 16.9497C52.0112 16.5586 51.9883 16.1444 51.8514 15.7532C51.8285 15.6612 51.7829 15.5692 51.7372 15.4771C51.6916 15.3851 51.6459 15.293 51.6003 15.201C51.509 15.0169 51.3948 14.8559 51.2807 14.6948C51.0524 14.3727 50.7785 14.0735 50.5274 13.7744C50.0023 13.1992 49.386 12.693 48.7697 12.2098L47.8337 11.4965C47.6739 11.3815 47.537 11.2664 47.3772 11.1284L46.9206 10.7602C46.3043 10.277 45.7108 9.77082 45.2771 9.14957C45.0488 8.85045 44.8661 8.50532 44.7292 8.16018C44.5922 7.81504 44.5009 7.42388 44.4553 7.05573C44.4096 6.66457 44.4096 6.29642 44.4553 5.90527C44.4781 5.72119 44.5009 5.51411 44.5237 5.33004C44.5466 5.14596 44.5922 4.96189 44.6607 4.77782C44.7748 4.40967 44.9575 4.06453 45.2086 3.76541C45.4597 3.46629 45.7793 3.23619 46.1445 3.12115C45.9619 3.16717 45.7792 3.23619 45.5966 3.35124C45.414 3.44328 45.2771 3.58133 45.1173 3.71939C44.8433 3.9955 44.6379 4.36365 44.4781 4.73179C44.4096 4.91587 44.3411 5.12295 44.3183 5.30703C44.2726 5.51411 44.2498 5.69818 44.227 5.90527C44.1813 6.29642 44.1585 6.71059 44.1813 7.10175C44.2042 7.49291 44.2955 7.90707 44.4324 8.29823C44.5694 8.68938 44.7748 9.03452 45.0031 9.37966C45.2314 9.70179 45.5053 10.0009 45.8021 10.277C46.0988 10.5531 46.3956 10.8062 46.6924 11.0593L47.1489 11.4275C47.3087 11.5425 47.4685 11.6806 47.6055 11.7956L48.5414 12.5089C48.861 12.739 49.1577 12.9691 49.4545 13.2222C49.7512 13.4753 50.048 13.7284 50.2991 14.0045C50.573 14.2806 50.8241 14.5567 51.0752 14.8559C51.1894 15.0169 51.3035 15.155 51.4176 15.316C51.5089 15.4771 51.6231 15.6382 51.6916 15.8223C51.8285 16.1674 51.8742 16.5586 51.8742 16.9497C51.8742 17.1338 51.8514 17.3409 51.7829 17.5249L51.7601 17.5709C51.7372 17.594 51.7372 17.617 51.7144 17.617C51.5774 17.8471 51.4861 18.1002 51.4176 18.3993C51.3035 18.7674 51.1894 19.1586 50.9154 19.4577C50.7785 19.6188 50.6187 19.7568 50.4361 19.8949C50.3676 19.9409 50.2991 20.0099 50.2534 20.056C50.185 20.102 50.1165 20.148 50.0252 20.171C50.0252 20.194 50.0252 20.217 50.0252 20.2861V20.171C50.0023 20.171 49.9795 20.194 49.9795 20.217C49.9339 20.24 49.8882 20.263 49.8425 20.2861C49.6599 20.3781 49.4773 20.4471 49.2718 20.5161C49.1805 20.5392 49.0892 20.5852 48.9751 20.6082C48.9523 20.6082 48.9294 20.6082 48.9294 20.6312C49.1121 20.4241 49.2262 20.171 49.2947 19.9179C49.386 19.5728 49.4088 19.2276 49.3632 18.8825C49.3175 18.5373 49.249 18.1922 49.1121 17.8701C48.9751 17.548 48.8153 17.2488 48.6327 16.9497C48.5414 16.8117 48.4272 16.6736 48.3131 16.5355C48.199 16.3975 48.0848 16.2824 47.9479 16.1674C47.6968 15.9373 47.4457 15.7302 47.1717 15.5231C46.6467 15.109 46.076 14.7638 45.551 14.3497C45.026 13.9585 44.5466 13.5213 44.1585 12.9921C44.0672 12.8541 43.9759 12.716 43.8846 12.601C43.7933 12.4629 43.7248 12.3248 43.6563 12.1638C43.5193 11.8647 43.3824 11.5655 43.2911 11.2434C43.1997 10.9213 43.1084 10.6222 43.04 10.277C42.9715 9.9549 42.9487 9.63276 42.9258 9.28762C42.8802 8.62035 42.9486 7.95309 43.1313 7.30883C42.903 7.93008 42.7888 8.62035 42.7888 9.28762C42.7888 9.63276 42.8117 9.9549 42.8573 10.3C42.903 10.6452 42.9715 10.9673 43.0628 11.2894C43.1541 11.6116 43.2682 11.9337 43.4052 12.2558C43.4737 12.4169 43.5422 12.5549 43.6335 12.716C43.7248 12.8771 43.8161 13.0151 43.9074 13.1532C44.1129 13.4293 44.3411 13.6824 44.5694 13.9355C44.8205 14.1656 45.0716 14.3957 45.3455 14.6028C45.8706 15.0169 46.4412 15.3851 46.9663 15.7762C47.1946 15.9373 47.3315 16.0293 47.7196 16.3975C47.8337 16.5125 47.9479 16.6276 48.062 16.7426C48.1761 16.8577 48.2674 16.9727 48.3587 17.1108C48.5414 17.3639 48.7012 17.663 48.8382 17.9621C48.9523 18.2612 49.0664 18.5604 49.1121 18.8825C49.1577 19.2046 49.1577 19.5267 49.0664 19.8259C48.9979 20.125 48.8382 20.4241 48.6099 20.6542L48.4501 20.8153H48.6783C48.7925 20.8153 48.9066 20.7923 48.9979 20.7462C49.0892 20.7232 49.2034 20.6772 49.2947 20.6312C49.4773 20.5622 49.6828 20.4701 49.8654 20.3551C49.911 20.3321 49.9567 20.3091 49.9795 20.2861C50.0023 20.3781 50.0252 20.4701 50.048 20.5622C50.1393 20.9533 50.185 21.3445 50.2306 21.7356C50.2763 22.0347 50.2991 22.3569 50.3676 22.679C50.4589 23.0932 50.7328 23.5073 51.0068 23.9215C51.3492 24.4277 51.6916 24.9569 51.7144 25.5091C51.897 25.5552 52.3536 25.6012 52.5818 25.6472C52.8558 25.6702 52.9471 25.6932 53.0156 25.7162C53.4493 25.8543 53.5406 25.9003 53.6319 26.1764C53.6548 26.2454 53.7004 26.3145 53.7461 26.4295C53.7689 26.4755 53.7917 26.5215 53.8373 26.5906C53.9515 26.7746 54.0656 26.9587 54.1113 27.1658C54.1798 27.4649 54.1113 27.718 53.9515 27.9251C53.7232 28.2012 53.3123 28.3393 52.6731 28.3393C52.422 28.3393 52.171 28.3163 51.9655 28.2933H51.8514C51.6916 28.2703 51.4861 28.2702 51.2807 28.2702C50.8698 28.2702 50.4361 28.2472 50.0937 28.1552C49.386 27.9711 49.2947 27.58 49.1806 27.1428C49.1577 27.0047 49.1121 26.8897 49.0664 26.7516C48.9523 26.4525 48.6783 26.2915 48.3587 26.1074C48.062 25.9463 47.7424 25.7622 47.537 25.4401C47.4457 25.279 47.3772 25.141 47.3315 25.0029C47.263 24.7959 47.1717 24.6118 46.9891 24.4277C46.8521 24.2897 46.6923 24.1516 46.5326 24.0135C46.3043 23.8065 46.0532 23.5994 45.8477 23.3233C45.4368 22.771 44.9118 22.0117 44.5694 21.2294C44.5237 21.1604 44.5009 21.0684 44.4781 20.9993C44.2955 20.7692 44.0672 20.5622 43.7704 20.4471C43.7248 20.4241 43.6563 20.4011 43.6106 20.3781C43.5878 20.3781 43.565 20.3781 43.565 20.3781C43.4509 20.4011 43.3367 20.4011 43.2454 20.4011C42.4693 20.4011 41.8073 20.125 41.2366 19.5958C41.1453 19.5267 41.0768 19.4347 41.0083 19.3427C40.8713 19.1586 40.7572 19.0435 40.6431 18.9975C40.6202 18.9975 40.6202 18.9975 40.5974 18.9745C40.6202 18.9745 40.6431 18.9745 40.6431 18.9975C40.78 18.9285 40.917 18.8595 41.0768 18.7905C41.2366 18.7214 41.4192 18.6294 41.6018 18.5604C41.7844 18.4683 41.9442 18.3763 42.1269 18.2612C42.4464 18.0311 42.7432 17.732 42.9486 17.3869C43.1541 17.0417 43.2682 16.6506 43.3367 16.2824C43.1541 16.6276 42.9715 16.9497 42.7432 17.2488C42.5149 17.5249 42.241 17.778 41.9442 17.9851C41.6475 18.1922 41.3051 18.3533 40.9627 18.5604C40.8029 18.6524 40.6431 18.7674 40.4833 18.9055C40.4604 18.9285 40.4148 18.9745 40.3463 19.0205C40.3235 19.0436 40.3235 19.0435 40.3007 19.0665C40.0952 19.2506 39.8669 19.5958 39.7528 19.7568C39.73 19.8028 39.6843 19.8489 39.6615 19.8719C39.3876 20.263 39.1593 20.6772 38.9538 21.0914C38.7256 21.5055 38.4973 21.9427 38.2005 22.3569C38.0864 22.5179 37.9494 22.702 37.8353 22.8631C37.5157 23.2772 37.1961 23.7374 36.945 24.1976C36.7624 24.5658 36.6254 24.8879 36.5798 25.21C36.5113 25.5552 36.5113 25.7392 36.5113 25.8313C36.5798 25.8313 36.6254 25.8313 36.6939 25.8313C36.8994 25.8773 37.0592 26.0384 37.1276 26.1074C37.1961 26.1994 37.2418 26.2915 37.2646 26.3605C37.2646 26.3835 37.2874 26.4295 37.2874 26.4295C37.3103 26.4295 37.3331 26.4295 37.3787 26.4525C37.4016 26.4525 37.4472 26.4525 37.4929 26.4755C37.6298 26.4985 37.7668 26.5676 37.8809 26.6136L37.9494 26.6366C38.1777 26.7286 38.5201 26.8437 38.6342 27.1198C38.7712 27.3959 38.794 27.649 38.6799 27.8331C38.5201 28.1782 38.0636 28.2933 37.6755 28.3853C37.2418 28.4773 36.6026 28.6154 35.9178 28.6154C35.3471 28.6154 34.8677 28.5234 34.5025 28.3623C34.2057 28.2242 33.6807 27.9481 33.5666 27.557C33.4524 27.2118 33.6122 26.9357 33.7492 26.7056C33.7948 26.6366 33.8405 26.5446 33.8633 26.4755C33.909 26.3375 33.9318 26.2915 33.9318 26.2685C33.909 26.2685 33.8861 26.2454 33.8633 26.2454C33.772 26.1994 33.635 26.1304 33.4752 25.9923C33.1328 25.6242 33.2926 24.9569 33.3383 24.8189C33.4296 24.4967 33.5437 24.2206 33.6579 23.9445C33.8405 23.5303 34.0003 23.1392 34.0231 22.61C34.0688 21.7586 34.297 20.9533 34.5025 20.171C34.6394 19.7108 34.7536 19.2506 34.8677 18.7674C34.9362 18.4223 34.8905 18.3072 34.8449 18.2612C34.7992 18.2152 34.7079 18.1922 34.571 18.1922C34.4568 18.1922 34.3427 18.2152 34.1601 18.2382C33.8633 18.2842 33.5437 18.3072 33.1328 18.3072C32.8361 18.3072 32.5393 18.3073 32.2882 18.2842C32.1969 18.2842 32.1056 18.2842 32.0143 18.2842C31.7632 18.2842 31.5121 18.2842 31.261 18.2382C30.7588 18.1462 30.2566 17.9391 29.7315 17.732C29.4576 17.617 29.2065 17.5019 28.9554 17.4329C28.7728 17.3639 28.613 17.2948 28.4075 17.2258C27.9738 17.0417 27.5401 16.8577 27.1749 16.8577H27.152C26.8096 16.8577 26.6042 17.1568 26.3987 17.5019C26.3302 17.594 26.2617 17.709 26.1933 17.801C25.9878 18.0772 25.8508 18.3763 25.7824 18.7444C25.7367 18.9285 25.7139 19.1126 25.6682 19.3197C25.5541 19.9869 25.4171 20.7002 25.0975 21.2984C25.0062 21.4595 24.9149 21.6206 24.8236 21.7586C24.5269 22.2188 24.2758 22.61 24.3899 23.1622C24.504 23.6914 24.9834 24.1056 25.4628 24.4737C25.6454 24.6118 25.8052 24.7498 25.965 24.8879C26.5585 25.4401 26.9922 25.6242 27.7455 25.6242C27.814 25.6242 27.8825 25.6242 27.9738 25.6242C28.0651 25.6242 28.1336 25.6242 28.2021 25.6012C28.2934 25.6012 28.4075 25.5782 28.4988 25.5782C28.7271 25.5782 29.001 25.6242 29.2978 25.9233C29.5033 26.1304 29.8 26.6366 29.7772 27.0278C29.7315 27.7641 28.7956 27.7871 28.1336 27.8101C27.951 27.8101 27.7684 27.8101 27.6542 27.8331C27.5173 27.8561 27.3575 27.8791 27.2205 27.9021C26.7868 27.9711 26.3531 28.0402 25.8965 28.0402C25.6911 28.0402 25.5084 28.0172 25.3258 27.9941C24.8464 27.9251 24.7095 27.741 24.504 27.4879C24.4584 27.4189 24.3899 27.3499 24.3214 27.2809C24.0931 27.0278 23.842 26.8897 23.5225 26.7286C23.4768 26.7056 23.4083 26.6596 23.3627 26.6366C22.6778 26.2454 22.13 25.7853 21.5365 25.233C21.3995 25.118 21.2625 24.9799 21.1027 24.8419C20.6462 24.4507 20.1212 24.0135 19.8244 23.5534C19.5048 23.0471 19.6189 22.3799 19.7103 21.7817C19.7559 21.5746 19.7787 21.3675 19.7787 21.1834C19.8244 20.263 19.7103 19.5267 19.4135 18.9055L19.3907 18.8595C19.2994 18.6984 19.1852 18.3993 19.0254 18.3303C19.0026 18.3303 18.9798 18.3072 18.957 18.3072H18.9113C18.8656 18.3072 18.8428 18.3533 18.7515 18.4683C18.6602 18.5834 18.5461 18.7214 18.3634 18.8135C18.021 18.9975 17.6786 19.0435 17.3134 19.0896C16.9025 19.1586 16.5144 19.2046 16.2177 19.4577C16.035 19.6188 15.8981 19.7798 15.7383 19.9639C15.4872 20.4931 14.9393 21.0223 14.5056 21.2294C14.323 21.3215 14.1175 21.3675 13.9121 21.4135C13.9121 21.4135 13.9121 21.4135 13.8892 21.4135C13.6153 21.5285 13.3414 21.6436 13.1359 21.7817C12.7707 22.0348 12.5424 22.4259 12.3141 22.8631C12.1544 23.1852 12.0859 23.4613 12.0402 23.8065C12.0174 23.9675 11.9717 24.1286 11.9489 24.2896C11.9261 24.3587 11.9033 24.4277 11.9033 24.4967C11.7891 24.8879 11.6978 25.2791 11.8119 25.6472C11.9261 25.6472 12.0402 25.6012 12.1772 25.5552C12.3598 25.4861 12.5653 25.4171 12.7935 25.4171C13.2501 25.4631 13.661 25.7622 13.9577 25.9923C14.2773 26.2224 14.5056 26.7286 14.5284 27.1658C14.5284 27.5109 14.4143 27.8101 14.186 27.9941C13.9577 28.1782 13.5012 28.2472 13.1359 28.2702C13.0446 28.2702 12.9761 28.2933 12.9305 28.2933C12.5653 28.3393 12.1772 28.4083 11.7435 28.3853C11.6978 28.3853 11.6522 28.3853 11.6065 28.3853C10.9217 28.3853 9.98574 28.3853 9.68898 27.58C9.55202 27.2348 9.50637 26.9127 9.43789 26.5906C9.32375 26.0614 9.23243 25.5782 8.89002 25.118C8.43347 24.4967 8.52479 23.8985 8.63892 23.2773C8.66175 23.1622 8.68458 23.0241 8.7074 22.8861C8.77589 22.4259 8.79871 22.0347 8.73023 21.6436C8.7074 21.5516 8.68458 21.4365 8.63892 21.3215C8.54762 21.0454 8.4563 20.7462 8.52479 20.4931C8.66175 19.9409 9.18678 19.7568 9.6205 19.5958C9.84878 19.5037 10.0771 19.4347 10.2368 19.2966C10.0771 18.0772 10.6249 16.8347 11.0815 15.8223C11.2184 15.5001 11.3326 15.178 11.4467 14.8329C11.6293 14.2576 11.8348 13.6594 12.1772 13.1532L12.2913 12.9691C12.6566 12.3939 13.0446 11.8186 13.4099 11.2204C13.4555 11.1284 13.5012 11.0593 13.5697 10.9673C13.7751 10.6222 13.9577 10.323 14.0947 9.93189C14.3001 9.40268 14.5056 8.9655 14.7567 8.55134C14.2545 8.57435 13.2729 8.59735 11.401 8.62036C9.59767 8.64337 7.56603 8.66638 7.15514 8.73541C5.96811 8.91948 3.06901 9.63277 1.97329 11.8877C1.5624 12.716 1.35696 14.0505 1.83634 15.0169C2.17875 15.7302 3.34294 16.9267 4.05059 16.9957C4.1419 16.9957 4.23321 17.0187 4.32452 17.0187C5.2148 17.0878 5.80831 17.1338 6.67575 17.732C7.24644 18.1232 7.88562 18.7214 8.57045 19.5498L8.77588 19.8028L8.45631 19.8949C7.703 20.102 6.90404 20.3091 6.1279 20.3091C5.58004 20.3091 5.05501 20.217 4.57563 19.9869C3.95929 19.7338 3.57122 19.5498 3.27446 18.9055C3.25164 18.8365 3.22881 18.7444 3.20598 18.5604C3.20598 18.4683 3.18315 18.3073 3.16033 18.2152C1.85916 17.755 0.946054 16.9497 0.44385 15.8683C-0.0127002 14.8559 -0.126835 13.6364 0.147095 12.2558C0.352542 11.1974 0.900402 10.254 1.74502 9.54073C4.73542 7.07874 8.2052 6.91768 11.8804 6.7336L12.3598 6.71059C13.9349 6.64156 15.1219 6.38847 16.6285 5.85925C18.295 5.26101 19.7103 4.80083 21.2625 4.70879H21.3082C21.7191 4.68578 22.1528 4.68578 22.6094 4.68578C23.9333 4.68578 25.2802 4.77781 26.6042 4.86985C27.9053 4.96189 29.2522 5.05393 30.5533 5.05393C30.7131 5.05393 30.8957 5.05393 31.0555 5.05393C32.7676 5.03092 34.4796 4.7318 36.1232 4.4787C36.8309 4.36365 37.5614 4.24861 38.269 4.13356H38.3603C39.3191 3.9955 40.255 3.76541 41.1909 3.58133C41.2138 3.58133 41.2594 3.55833 41.2822 3.55833C41.2366 3.60435 41.1909 3.62736 41.1453 3.67337C41.0083 3.78842 40.8713 3.92647 40.7344 4.06453C40.6202 4.20258 40.4833 4.36365 40.392 4.52471C40.2778 4.68578 40.1865 4.84684 40.0952 5.03092C40.0039 5.19198 39.9354 5.37605 39.8669 5.56013C39.7985 5.7442 39.7528 5.92827 39.7071 6.11235C39.6843 6.20439 39.6615 6.29643 39.6387 6.38846L39.593 6.66458C39.4789 7.40087 39.3191 8.11416 39.0223 8.78143C38.8625 9.10356 38.6799 9.42568 38.406 9.63276C38.269 9.74781 38.1092 9.83985 37.9494 9.88587C37.7896 9.93189 37.5842 9.9549 37.4016 9.9549C37.5842 10.0009 37.7668 10.0009 37.9723 9.9779C38.1549 9.95489 38.3375 9.86286 38.4973 9.77082C38.6571 9.65578 38.794 9.51772 38.931 9.37966C39.0451 9.24161 39.1593 9.05754 39.2506 8.89648C39.4332 8.55134 39.5702 8.20619 39.6615 7.83804C39.7071 7.65397 39.7528 7.4699 39.7985 7.28582C39.8441 7.10175 39.8669 6.91768 39.9126 6.7336L39.9582 6.45749C39.9811 6.36545 39.9811 6.27342 40.0039 6.20439C40.0495 6.02032 40.0952 5.85925 40.1409 5.67517C40.2093 5.51411 40.255 5.33004 40.3463 5.16898C40.4148 5.00791 40.5061 4.84684 40.5974 4.68578C40.6887 4.52472 40.78 4.38666 40.8942 4.22559C41.0083 4.08754 41.1224 3.94948 41.2366 3.81142C41.3279 3.71939 41.4192 3.62735 41.5333 3.53532H41.5562C41.6475 3.46629 41.7388 3.37425 41.8529 3.30523C41.9214 3.25921 41.9899 3.2362 42.0584 3.19018C42.3323 3.05212 42.4464 2.84504 42.6062 2.61495C42.6975 2.4999 42.766 2.36184 42.8802 2.22379C43.1084 1.94768 43.3824 1.67157 43.7476 1.4875C43.8617 1.44148 43.9759 1.39546 44.09 1.34944C44.5694 1.21138 45.0488 1.09634 45.5966 1.09634C45.6879 1.09634 45.7564 1.09634 45.8477 1.09634C46.1673 1.09634 46.4641 1.09634 46.8065 1.18837C47.1033 1.2574 47.3315 1.23439 47.6511 1.09634C47.8565 1.0043 48.0392 0.91226 48.2446 0.820223C48.3587 0.774205 48.4729 0.705181 48.587 0.659163C49.2262 0.360042 49.9567 0.0379131 50.8241 0.198978C51.2579 0.268005 51.6687 0.198974 52.1253 0.129946C52.1481 0.129946 52.1938 0.106942 52.2166 0.106942C52.6503 0.0379145 53.0841 -0.0311189 53.5178 0.0148996C53.8602 0.0609181 54.1798 0.12995 54.4994 0.42907C54.6363 0.567126 54.7048 0.728189 54.7961 0.866244C54.8418 0.981291 54.9102 1.09634 54.9559 1.11935C55.0472 1.18838 55.1842 1.21138 55.3211 1.23439C55.5266 1.28041 55.7549 1.32643 55.9603 1.4875C56.2799 1.7406 56.5538 2.10874 56.7136 2.56893C56.7593 2.70698 56.8049 2.86805 56.8278 3.05212C56.9647 3.69638 57.056 3.97249 57.5126 3.92647C57.5583 3.92647 57.6039 3.90347 57.6724 3.88046C57.8093 3.81143 57.9691 3.69638 58.0604 3.55833L58.38 3.16717L58.4257 3.67337C58.4714 4.11055 58.3116 4.45569 57.992 4.68578C58.2202 4.86985 58.4942 5.14596 58.7453 5.4911C58.8366 5.62916 58.9279 5.76721 58.9964 5.90527C59.0192 5.95129 59.042 5.99731 59.0648 6.04332L59.042 6.06633C59.0877 6.18138 59.1333 6.31943 59.1562 6.45749C59.179 6.59554 59.179 6.68758 59.179 6.7336C59.179 6.75661 59.179 6.75661 59.179 6.75661C59.179 6.77962 59.2703 6.91768 59.3159 6.9867C59.4301 7.17078 59.5899 7.33184 59.7497 7.51591C59.7953 7.56193 59.841 7.60795 59.8638 7.65397C60.0464 7.86105 60.2291 8.06813 60.3889 8.25221C60.7084 8.62035 61.0052 8.98851 61.4161 9.37966C61.4617 9.42568 61.5074 9.47169 61.5531 9.51771C61.8498 9.74781 62.0553 9.93189 61.9868 10.3921ZM40.5061 18.9285C40.4833 18.9285 40.4833 18.9285 40.4604 18.9285C40.4833 18.9285 40.5061 18.9285 40.5061 18.9285ZM56.6451 5.238C56.4397 5.30703 56.2342 5.35305 56.006 5.39907C55.5722 5.4681 55.1157 5.4911 54.6363 5.65216C54.5222 5.69818 54.408 5.7442 54.2939 5.79022C54.1798 5.85925 54.0885 5.92827 53.9743 5.9973C53.7917 6.15837 53.6319 6.38846 53.5406 6.59554C53.495 6.71059 53.4721 6.82564 53.4493 6.96369C53.4265 7.07874 53.4493 7.2168 53.4721 7.33184C53.4949 7.44689 53.5634 7.56193 53.6319 7.65397C53.7232 7.74601 53.8145 7.81504 53.9287 7.86106C53.8374 7.79203 53.7689 7.69999 53.7232 7.60795C53.6776 7.51591 53.6548 7.40087 53.6319 7.30883C53.6091 7.10175 53.6776 6.89466 53.7689 6.71059C53.8602 6.52652 53.9971 6.36545 54.1569 6.2274C54.3167 6.11235 54.4994 6.02032 54.7048 5.95129C55.1157 5.81323 55.5723 5.76721 56.0288 5.65216C56.2571 5.58314 56.4853 5.51411 56.6908 5.37606C56.8962 5.26101 57.0789 5.07694 57.193 4.89286C57.056 5.03092 56.8506 5.14596 56.6451 5.238ZM18.9798 18.3533C18.9798 18.3533 20.806 14.9709 24.2529 14.8329C24.2529 14.8329 20.6918 14.2346 18.9798 18.3533ZM24.8236 12.739C24.7551 11.7266 24.9378 10.8523 24.504 9.7248C24.4356 9.54073 24.2758 9.42568 24.116 9.28762C24.8921 9.95489 24.3671 11.5885 24.6866 13.5904C25.0291 15.6152 27.4031 16.7656 27.4031 16.7656C27.0379 16.4895 26.6726 16.1904 26.3531 15.8453C25.5084 15.0169 24.8921 13.9815 24.8236 12.739ZM35.8265 15.6612C35.7123 15.8683 35.6438 16.1214 35.5982 16.3515C35.5069 16.8347 35.5297 17.3179 35.5754 17.778C35.5754 17.8471 35.5982 17.8931 35.5982 17.9391C35.5982 17.9851 35.621 18.0542 35.621 18.1002C35.621 18.2152 35.6438 18.3303 35.6438 18.4453C35.6438 18.6754 35.621 18.9055 35.5982 19.1126C35.5525 19.5728 35.4612 20.0329 35.4156 20.4931C35.5754 20.056 35.7352 19.6188 35.8493 19.1586C35.895 18.9285 35.9406 18.6984 35.9406 18.4453C35.9406 18.3303 35.9406 18.1922 35.9406 18.0772C35.9406 18.0081 35.9406 17.9621 35.9178 17.8931C35.9178 17.8241 35.8949 17.778 35.8949 17.709C35.8265 17.2488 35.8036 16.8116 35.8265 16.3515C35.8493 16.1214 35.8721 15.9143 35.9634 15.7072C36.0319 15.5001 36.1689 15.3161 36.3515 15.178C36.2374 15.201 36.1232 15.27 36.0319 15.3621C35.9634 15.4541 35.8949 15.5691 35.8265 15.6612Z" fill="white"/>
</svg>
