<svg width="146" height="152" viewBox="0 0 146 152" fill="none" xmlns="http://www.w3.org/2000/svg">
<g filter="url(#filter0_d_328_17063)">
<path d="M48.3544 65.152L37.9648 67.1608C37.9648 67.1608 34.3576 65.9944 32.824 60.6808C31.312 55.5184 33.6016 52.0624 33.6016 52.0624L43.2784 48.5632L43.4296 49.0384C43.4296 49.0384 41.7448 52.6024 43.084 57.2896C44.6392 62.7328 48.2464 64.72 48.2464 64.72L48.3544 65.152Z" fill="#FFC727"/>
<g opacity="0.5">
<path d="M48.3544 65.152L37.9648 67.1608C37.9648 67.1608 34.3576 65.9944 32.824 60.6808C31.312 55.5184 33.6016 52.0624 33.6016 52.0624L43.2784 48.5632L43.4296 49.0384C43.4296 49.0384 41.7448 52.6024 43.084 57.2896C44.6392 62.7328 48.2464 64.72 48.2464 64.72L48.3544 65.152Z" fill="black"/>
</g>
<path opacity="0.1" d="M43.2567 48.5632C43.2567 48.5632 40.9239 52.4296 42.9111 58.2184C44.8551 63.856 48.3543 65.152 48.3543 65.152L48.2247 64.72C48.2247 64.72 44.6175 62.7328 43.0623 57.2896C41.7447 52.6672 43.3647 49.1464 43.4079 49.0384L43.2567 48.5632Z" fill="black"/>
<path d="M71.8768 95.0032L74.3608 92.8C74.3608 92.8 68.9392 81.3952 67.7944 78.328C66.6496 75.2608 65.4184 61.9768 65.4184 61.9768L63.1504 62.0416L59.9536 76.384L71.8768 95.0032Z" fill="#FFC727"/>
<path opacity="0.1" d="M71.8768 95.0032L74.3608 92.8C74.3608 92.8 68.9392 81.3952 67.7944 78.328C66.6496 75.2608 65.4184 61.9768 65.4184 61.9768L63.1504 62.0416L59.9536 76.384L71.8768 95.0032Z" fill="black"/>
<path d="M50.9034 63.7047C50.9034 63.7047 49.953 77.2479 50.9034 82.8423C51.8538 88.4367 55.5042 98.3079 55.5042 98.3079L71.877 95.0031C71.877 95.0031 66.7578 83.5119 65.6562 80.4015C63.2586 73.6839 63.1722 62.0415 63.1722 62.0415L50.9034 63.7047Z" fill="#FFC727"/>
<path d="M54.6402 99.3017L71.877 95.0033L74.3826 92.8001L69.7386 81.7409L69.177 81.5249L66.6498 82.8857L51.8754 87.1193L51.7674 86.5793L51.1626 87.8537L54.6402 99.3017Z" fill="#37474F"/>
<path d="M51.1626 87.8537L66.9738 83.3177L69.7386 81.7409L69.177 81.5249L66.6498 82.8857L51.8754 87.1193L51.7674 86.5793L51.1626 87.8537Z" fill="#455A64"/>
<path d="M66.9736 83.3178L71.8768 95.0034L74.3824 92.8002L69.7384 81.741L66.9736 83.3178Z" fill="#263238"/>
<path opacity="0.15" d="M65.9156 66.664L63.3884 66.7288L50.5796 69.8176C50.7092 66.3616 50.882 63.7048 50.882 63.7048L63.1508 62.0416L65.4188 61.9768C65.4404 61.9768 65.6348 64.0072 65.9156 66.664Z" fill="black"/>
<path d="M89.8696 14.6729C89.8696 14.6729 79.6528 29.4041 64.144 38.4977C54.6616 44.0489 47.8792 46.4464 47.1664 46.684C47.1664 46.684 42.9544 48.9304 44.812 57.2248C47.3608 65.3248 52.1344 65.1736 52.1344 65.1736C52.8472 65.0224 59.9536 63.6833 70.9264 63.7481C88.9192 63.8344 105.141 71.4593 105.141 71.4593C105.162 71.4377 105.162 71.416 105.184 71.3945C101.901 70.2281 98.056 64.6336 94.816 56.5984C94.6 56.08 94.4056 55.5616 94.2112 55.0217C93.0448 51.9113 91.9648 48.4985 91.036 44.848C89.9992 41.2192 89.2216 37.7416 88.6816 34.4584C88.5952 33.8968 88.4872 33.3353 88.4224 32.7737C87.1912 24.1985 87.7096 17.4161 89.9776 14.7593C89.9128 14.7161 89.8912 14.6945 89.8696 14.6729Z" fill="#FFC727"/>
<path d="M89.8694 14.6729C89.8694 14.6729 79.6526 29.4041 64.1438 38.4977C54.6614 44.0489 47.879 46.4464 47.1662 46.684C47.1662 46.684 43.8614 48.4552 44.4014 54.6329C44.4014 54.7192 44.423 54.784 44.423 54.8704C44.4878 55.6049 44.6174 56.3824 44.8118 57.2248C47.3606 65.3248 52.1342 65.1736 52.1342 65.1736C52.847 65.0224 59.9534 63.6833 70.9262 63.7481C88.919 63.8344 105.119 71.4593 105.119 71.4593L105.162 71.3945C101.879 70.2281 98.0342 64.6336 94.7942 56.5984C94.5782 56.08 94.3838 55.5617 94.1894 55.0217C93.023 51.9113 91.943 48.4984 91.0142 44.848C90.6038 43.4008 90.2366 41.9753 89.891 40.5928C89.891 40.5712 89.891 40.5713 89.891 40.5497C89.8046 40.1609 89.7182 39.772 89.6318 39.3832C89.4158 38.3896 89.1998 37.4176 89.027 36.4672C88.8974 35.7976 88.7894 35.128 88.6598 34.4584C88.5734 33.8968 88.487 33.3353 88.4006 32.7737C88.3142 32.1473 88.2278 31.5208 88.163 30.8944C88.0982 30.376 88.055 29.8577 87.9902 29.3609C87.9686 29.1017 87.947 28.8425 87.9254 28.5833C87.3854 22.0169 88.0766 16.9625 89.9558 14.7593C89.9126 14.7161 89.891 14.6945 89.8694 14.6729Z" fill="#FFC727"/>
<path d="M53.9273 65.4759L41.5289 67.8735C41.5289 67.8735 37.2305 66.4911 35.3945 60.1623C33.6017 54.0063 36.3233 49.8807 36.3233 49.8807L47.8793 45.7119L48.0521 46.2735C48.0521 46.2735 46.0433 50.5287 47.6417 56.1231C49.4993 62.6247 53.7977 65.0007 53.7977 65.0007L53.9273 65.4759Z" fill="#FFC727"/>
<g opacity="0.2">
<path d="M53.9273 65.4759L41.5289 67.8735C41.5289 67.8735 37.2305 66.4911 35.3945 60.1623C33.6017 54.0063 36.3233 49.8807 36.3233 49.8807L47.8793 45.7119L48.0521 46.2735C48.0521 46.2735 46.0433 50.5287 47.6417 56.1231C49.4993 62.6247 53.7977 65.0007 53.7977 65.0007L53.9273 65.4759Z" fill="black"/>
</g>
<path opacity="0.1" d="M47.8575 45.6904C47.8575 45.6904 45.0711 50.3128 47.4255 57.2248C49.7367 63.964 53.9271 65.4976 53.9271 65.4976L53.7759 64.9792C53.7759 64.9792 49.4559 62.6032 47.6199 56.1016C46.0431 50.5936 47.9871 46.3816 48.0303 46.252L47.8575 45.6904Z" fill="black"/>
<g opacity="0.2">
<path d="M37.7485 50.9177C37.6189 50.9177 37.4893 50.8313 37.4461 50.6801C37.4029 50.5073 37.4893 50.3345 37.6621 50.2697L40.4485 49.4273C40.6213 49.3841 40.7941 49.4705 40.8589 49.6433C40.9021 49.8161 40.8157 49.9889 40.6429 50.0537L37.8565 50.8961C37.8133 50.9177 37.7917 50.9177 37.7485 50.9177Z" fill="black"/>
<path d="M37.5326 52.5161C37.403 52.5161 37.2734 52.4297 37.2302 52.2785C37.187 52.1057 37.2734 51.9329 37.4462 51.8681L40.2326 51.0257C40.4054 50.9825 40.5782 51.0689 40.643 51.2417C40.6862 51.4145 40.5998 51.5873 40.427 51.6521L37.6406 52.4945C37.5974 52.5161 37.5542 52.5161 37.5326 52.5161Z" fill="black"/>
</g>
<g opacity="0.2">
<path d="M41.8095 65.4761C41.6799 65.4761 41.5503 65.3681 41.5071 65.2385C41.4639 65.0657 41.5719 64.8929 41.7447 64.8497L44.5743 64.1585C44.7471 64.1153 44.9199 64.2233 44.9631 64.3961C45.0063 64.5689 44.8983 64.7417 44.7255 64.7849L41.8959 65.4761C41.8743 65.4761 41.8311 65.4761 41.8095 65.4761Z" fill="black"/>
<path d="M42.911 66.7073C42.7814 66.7073 42.6518 66.5993 42.6086 66.4697C42.5654 66.2969 42.6734 66.124 42.8462 66.0808L45.6758 65.3897C45.8486 65.3465 46.0214 65.4545 46.0646 65.6273C46.1078 65.8001 45.9998 65.9729 45.827 66.0161L42.9974 66.7073C42.9758 66.7073 42.9542 66.7073 42.911 66.7073Z" fill="black"/>
</g>
<path opacity="0.1" d="M105.162 71.3513L105.119 71.4161C105.119 71.4161 88.8977 63.7913 70.9265 63.7265C62.5241 63.6833 56.4113 64.4609 53.6681 64.8929C53.7329 64.9361 53.7761 64.9577 53.7761 64.9577L53.9273 65.4761L41.5289 67.8737C41.5289 67.8737 37.2305 66.4913 35.3945 60.1625C33.6017 54.0065 36.3233 49.8809 36.3233 49.8809C36.0425 52.1705 38.8937 57.2033 42.8249 56.9657C45.7841 56.7929 47.0153 51.6089 47.0153 51.6089C47.0153 51.6089 56.5625 60.7889 76.4129 57.4625C82.9793 56.3609 90.2585 52.0625 91.9649 48.2393C92.6561 50.6153 93.4121 52.8617 94.2113 54.9785C94.4057 55.5185 94.6217 56.0369 94.8161 56.5553C98.0345 64.5905 101.879 70.2065 105.162 71.3513Z" fill="black"/>
<path d="M89.8697 14.5216C90.3233 14.0032 90.8417 13.636 91.4465 13.4632C96.3929 11.9728 104.277 23.7232 109.029 39.6856C113.781 55.648 113.63 69.796 108.683 71.2648C108.575 71.2864 108.489 71.308 108.402 71.3296C108.381 71.3296 108.338 71.3512 108.316 71.3512C106.48 71.6536 104.277 70.2496 102.009 67.6144C98.8985 63.964 95.6369 57.9376 92.9585 50.6368C92.2889 48.844 91.6841 46.9864 91.1009 45.0424C90.2369 42.1264 89.5241 39.2536 88.9841 36.5104C86.9105 26.0992 87.2129 17.5456 89.8697 14.5216Z" fill="#FFC727"/>
<path opacity="0.6" d="M89.8697 14.5216C90.3233 14.0032 90.8417 13.636 91.4465 13.4632C96.3929 11.9728 104.277 23.7232 109.029 39.6856C113.781 55.648 113.63 69.796 108.683 71.2648C108.575 71.2864 108.489 71.308 108.402 71.3296C108.381 71.3296 108.338 71.3512 108.316 71.3512C106.48 71.6536 104.277 70.2496 102.009 67.6144C98.8985 63.964 95.6369 57.9376 92.9585 50.6368C92.2889 48.844 91.6841 46.9864 91.1009 45.0424C90.2369 42.1264 89.5241 39.2536 88.9841 36.5104C86.9105 26.0992 87.2129 17.5456 89.8697 14.5216Z" fill="black"/>
<path opacity="0.2" d="M111.815 52.0409L90.8198 44.1353C90.9062 44.4377 90.9926 44.7401 91.079 45.0209C91.6622 46.9433 92.267 48.8225 92.9366 50.6153C95.615 57.9377 98.8766 63.9641 101.987 67.5929C104.255 70.2497 106.458 71.6321 108.273 71.3297C108.294 71.3297 108.337 71.3297 108.359 71.3081C108.467 71.2865 108.553 71.2649 108.64 71.2433C112.29 70.1849 113.349 62.3873 111.815 52.0409Z" fill="black"/>
<path d="M89.2217 37.72C90.4745 36.7048 92.0513 36.0568 93.7793 35.9488C98.1857 35.6896 101.944 39.0592 102.203 43.4656C102.462 47.872 99.0929 51.6304 94.6865 51.8896C94.1681 51.9112 93.6713 51.9112 93.1961 51.8464C92.5265 50.0536 91.9217 48.196 91.3385 46.252C90.4745 43.336 89.7617 40.4632 89.2217 37.72Z" fill="#FFC727"/>
<path d="M92.0943 12.124C94.8591 11.9728 98.0343 14.4352 101.339 19.36C104.73 24.4144 107.884 31.4992 110.217 39.34C112.55 47.1808 113.802 54.8272 113.738 60.9184C113.673 67.5496 112.053 71.5456 109.05 72.4312C108.921 72.4744 108.813 72.496 108.705 72.5176C108.618 72.5392 108.532 72.5608 108.467 72.5608C106.221 72.9064 103.758 71.4808 101.102 68.392C97.7967 64.5472 94.5135 58.3696 91.8135 51.0256C91.1439 49.2328 90.5175 47.332 89.9343 45.3664C89.0487 42.4072 88.3359 39.4912 87.7959 36.7264C85.5927 25.6672 86.0463 17.0704 88.9839 13.7008C89.5887 12.988 90.3231 12.5128 91.1223 12.2752C91.4247 12.1888 91.7487 12.124 92.0943 12.124ZM108.186 70.12C108.23 70.0984 108.294 70.0984 108.338 70.0768C110.087 69.5584 111.21 66.0376 111.275 60.8752C111.34 55.0216 110.13 47.6128 107.862 40.0096C105.594 32.4064 102.549 25.5376 99.3087 20.6992C96.4359 16.4224 93.5847 14.0896 91.8135 14.6296C91.4463 14.7376 91.1223 14.9536 90.8199 15.3208C88.8759 17.5456 87.9255 24.868 90.1935 36.2512C90.7119 38.9512 91.4247 41.7808 92.2887 44.6752C92.8503 46.5976 93.4767 48.4552 94.1247 50.1832C96.6735 57.16 99.8919 63.208 102.959 66.7936C104.946 69.1264 106.826 70.3144 108.122 70.12H108.186Z" fill="#FFC727"/>
<path opacity="0.2" d="M92.0943 12.124C94.8591 11.9728 98.0343 14.4352 101.339 19.36C104.73 24.4144 107.884 31.4992 110.217 39.34C112.55 47.1808 113.802 54.8272 113.738 60.9184C113.673 67.5496 112.053 71.5456 109.05 72.4312C108.921 72.4744 108.813 72.496 108.705 72.5176C108.618 72.5392 108.532 72.5608 108.467 72.5608C106.221 72.9064 103.758 71.4808 101.102 68.392C97.7967 64.5472 94.5135 58.3696 91.8135 51.0256C91.1439 49.2328 90.5175 47.332 89.9343 45.3664C89.0487 42.4072 88.3359 39.4912 87.7959 36.7264C85.5927 25.6672 86.0463 17.0704 88.9839 13.7008C89.5887 12.988 90.3231 12.5128 91.1223 12.2752C91.4247 12.1888 91.7487 12.124 92.0943 12.124ZM108.186 70.12C108.23 70.0984 108.294 70.0984 108.338 70.0768C110.087 69.5584 111.21 66.0376 111.275 60.8752C111.34 55.0216 110.13 47.6128 107.862 40.0096C105.594 32.4064 102.549 25.5376 99.3087 20.6992C96.4359 16.4224 93.5847 14.0896 91.8135 14.6296C91.4463 14.7376 91.1223 14.9536 90.8199 15.3208C88.8759 17.5456 87.9255 24.868 90.1935 36.2512C90.7119 38.9512 91.4247 41.7808 92.2887 44.6752C92.8503 46.5976 93.4767 48.4552 94.1247 50.1832C96.6735 57.16 99.8919 63.208 102.959 66.7936C104.946 69.1264 106.826 70.3144 108.122 70.12H108.186Z" fill="black"/>
</g>
<path d="M119.462 34.5232L111.405 35.3008L111.858 33.7672L114.105 36.2728L115.077 37.3528C114.364 37.3312 106.955 37.0288 106.026 36.9856L113.673 36.1L113.284 37.1368L110.649 35.0632L109.266 33.9832C110.433 33.7024 117.647 31.9744 118.965 31.6504L119.462 34.5232Z" fill="#FFCE41"/>
<path d="M94.2114 20.6343L95.5506 26.5959L94.3626 26.4015L96.0258 24.4791L96.7602 23.6367C96.8034 24.1767 97.2786 29.7711 97.3434 30.4623L95.961 24.8031L96.7818 24.9975L95.4642 27.1791L94.773 28.3239C94.449 27.4815 92.4618 22.2327 92.1162 21.2607L94.2114 20.6343Z" fill="#FFCE41"/>
<path d="M109.483 12.5128L103.716 23.7016L102.096 21.8008L107.258 20.98L109.504 20.6128C108.856 21.52 102.247 30.9808 101.404 32.1472L106.696 21.412L107.733 22.7944L102.787 24.5008L100.195 25.3864C100.8 23.6368 104.601 12.7288 105.292 10.72L109.483 12.5128Z" fill="#FFCE41"/>
<path d="M117.302 61.4153L110.412 57.1817L111.708 56.2313L111.988 59.5793L112.118 61.0481C111.556 60.5945 105.832 55.8857 105.12 55.2809L111.751 59.1905L110.822 59.7737L109.958 56.5121L109.504 54.8057C110.606 55.2809 117.41 58.2617 118.663 58.8017L117.302 61.4153Z" fill="#FFCE41"/>
<path d="M107.064 66.9663L105.055 61.1775L106.264 61.2423L104.817 63.3375L104.191 64.2447C104.083 63.7047 102.981 58.2183 102.852 57.5271L104.86 62.9919L104.04 62.8839L105.098 60.5727L105.66 59.3631C106.07 60.1623 108.64 65.1735 109.116 66.0807L107.064 66.9663Z" fill="#FFCE41"/>
<defs>
<filter id="filter0_d_328_17063" x="0.307617" y="0.117432" width="145.432" height="151.184" filterUnits="userSpaceOnUse" color-interpolation-filters="sRGB">
<feFlood flood-opacity="0" result="BackgroundImageFix"/>
<feColorMatrix in="SourceAlpha" type="matrix" values="0 0 0 0 0 0 0 0 0 0 0 0 0 0 0 0 0 0 127 0" result="hardAlpha"/>
<feOffset dy="20"/>
<feGaussianBlur stdDeviation="16"/>
<feComposite in2="hardAlpha" operator="out"/>
<feColorMatrix type="matrix" values="0 0 0 0 0.0392157 0 0 0 0 0.0470588 0 0 0 0 0.0941176 0 0 0 0.4 0"/>
<feBlend mode="normal" in2="BackgroundImageFix" result="effect1_dropShadow_328_17063"/>
<feBlend mode="normal" in="SourceGraphic" in2="effect1_dropShadow_328_17063" result="shape"/>
</filter>
</defs>
</svg>
