<svg width="7" height="8" viewBox="0 0 7 8" fill="none" xmlns="http://www.w3.org/2000/svg">
<path fill-rule="evenodd" clip-rule="evenodd" d="M1.97085 3.68314C1.80949 2.23874 2.65354 1.22282 4.23576 0.644424C3.26666 1.90152 5.06172 3.26345 5.16069 4.5691C5.39269 4.17335 5.52438 3.64483 5.55046 2.93886C6.73678 4.80017 5.75332 7.84208 3.14241 7.40495C2.9027 7.36491 2.67177 7.28922 2.46119 7.17655C1.50925 6.66786 0.94043 5.56015 0.94043 4.50219C0.94043 3.82788 1.22883 3.2258 1.6021 2.74744C1.65199 3.21609 1.75814 3.56568 1.97085 3.68314Z" fill="#E20919"/>
<path fill-rule="evenodd" clip-rule="evenodd" d="M2.79183 5.59934C2.50143 4.83231 2.5416 3.59396 3.35493 3.1595C3.36065 4.58328 4.73268 4.76433 4.4782 6.28429C4.71286 6.01305 4.83085 5.57898 4.852 5.23671C5.22395 6.10643 4.93235 6.80269 4.40224 7.15721C2.79063 8.23472 1.40277 6.05003 2.32557 4.85239C2.35324 5.11938 2.6733 5.53242 2.79183 5.59934Z" fill="url(#paint0_linear_328_17215)"/>
<defs>
<linearGradient id="paint0_linear_328_17215" x1="3.11588" y1="4.45504" x2="3.11588" y2="7.305" gradientUnits="userSpaceOnUse">
<stop stop-color="#FB6404"/>
<stop offset="1" stop-color="#F2BE10"/>
</linearGradient>
</defs>
</svg>
