<svg width="7" height="7" viewBox="0 0 7 7" fill="none" xmlns="http://www.w3.org/2000/svg">
<path fill-rule="evenodd" clip-rule="evenodd" d="M1.97085 3.14983C1.80949 1.70543 2.65354 0.689505 4.23576 0.111107C3.26666 1.36821 5.06172 2.73013 5.16069 4.03578C5.39269 3.64003 5.52438 3.11152 5.55046 2.40554C6.73678 4.26685 5.75332 7.30876 3.14241 6.87164C2.9027 6.8316 2.67177 6.7559 2.46119 6.64323C1.50925 6.13454 0.94043 5.02683 0.94043 3.96887C0.94043 3.29456 1.22883 2.69248 1.6021 2.21412C1.65199 2.68277 1.75814 3.03236 1.97085 3.14983Z" fill="#E20919"/>
<path fill-rule="evenodd" clip-rule="evenodd" d="M2.79183 5.06602C2.50143 4.29899 2.5416 3.06065 3.35493 2.62618C3.36065 4.04996 4.73268 4.23101 4.4782 5.75097C4.71286 5.47973 4.83085 5.04566 4.852 4.70339C5.22395 5.57311 4.93235 6.26937 4.40224 6.62389C2.79063 7.7014 1.40277 5.51671 2.32557 4.31907C2.35324 4.58606 2.6733 4.99911 2.79183 5.06602Z" fill="url(#paint0_linear_328_17226)"/>
<defs>
<linearGradient id="paint0_linear_328_17226" x1="3.11588" y1="3.92173" x2="3.11588" y2="6.77168" gradientUnits="userSpaceOnUse">
<stop stop-color="#FB6404"/>
<stop offset="1" stop-color="#F2BE10"/>
</linearGradient>
</defs>
</svg>
