<svg width="30" height="17" viewBox="0 0 30 17" fill="none" xmlns="http://www.w3.org/2000/svg">
<path fill-rule="evenodd" clip-rule="evenodd" d="M22.8571 16.5H29.7142C29.7142 14.9845 29.1122 13.531 28.0405 12.4594C26.9689 11.3878 25.5155 10.7857 23.9999 10.7857C23.015 10.7857 22.0562 11.04 21.2114 11.5123C22.2738 12.9468 22.8571 14.6933 22.8571 16.5ZM18.2856 16.5L22.0952 16.5C22.0952 16.2444 22.0824 15.9902 22.0571 15.7381C21.9181 14.3549 21.4032 13.0375 20.5714 11.9285C20.3563 12.0898 20.1517 12.267 19.9593 12.4594C18.8877 13.531 18.2856 14.9845 18.2856 16.5ZM26.8571 7.35714C26.8571 8.9351 25.5779 10.2143 23.9999 10.2143C22.422 10.2143 21.1428 8.9351 21.1428 7.35714C21.1428 5.77919 22.422 4.5 23.9999 4.5C25.5779 4.5 26.8571 5.77919 26.8571 7.35714Z" fill="#1F7AE0"/>
<path fill-rule="evenodd" clip-rule="evenodd" d="M7.95028 11.2414C7.24983 10.9435 6.49019 10.7857 5.71429 10.7857C4.19876 10.7857 2.74531 11.3878 1.67368 12.4594C0.602039 13.531 0 14.9845 0 16.5L5.71429 16.5L6.09524 16.5C6.09524 14.578 6.75545 12.724 7.95028 11.2414ZM6.85714 16.5L11.4286 16.5C11.4286 14.9845 10.8265 13.531 9.7549 12.4594C9.4194 12.1239 9.04648 11.8344 8.64596 11.595C7.6584 12.7688 7.04849 14.2135 6.89531 15.7381C6.86998 15.9902 6.85714 16.2444 6.85714 16.5ZM8.57143 7.35714C8.57143 8.9351 7.29224 10.2143 5.71429 10.2143C4.13633 10.2143 2.85714 8.9351 2.85714 7.35714C2.85714 5.77919 4.13633 4.5 5.71429 4.5C7.29224 4.5 8.57143 5.77919 8.57143 7.35714Z" fill="#1F7AE0"/>
<path d="M14.476 8.11905C16.5799 8.11905 18.2855 6.41347 18.2855 4.30952C18.2855 2.20558 16.5799 0.5 14.476 0.5C12.372 0.5 10.6665 2.20558 10.6665 4.30952C10.6665 6.41347 12.372 8.11905 14.476 8.11905Z" fill="#FFAA00"/>
<path d="M19.8635 11.1125C21.2923 12.5414 22.095 14.4793 22.095 16.5L6.85693 16.5C6.85693 14.4793 7.65965 12.5414 9.0885 11.1125C10.5174 9.68367 12.4553 8.88095 14.476 8.88095C16.4967 8.88095 18.4346 9.68367 19.8635 11.1125Z" fill="#FFAA00"/>
</svg>
