<svg width="28" height="28" viewBox="0 0 28 28" fill="none" xmlns="http://www.w3.org/2000/svg">
<path d="M14.003 28C17.3689 28.0002 20.6209 26.781 23.157 24.568L13.297 14.708C13.2038 14.6151 13.1299 14.5048 13.0795 14.3833C13.029 14.2618 13.003 14.1316 13.003 14V0.0510254C9.38589 0.307332 6.00955 1.95789 3.58557 4.65484C1.16158 7.35178 -0.120704 10.8845 0.0089564 14.5083C0.138616 18.1322 1.6701 21.5642 4.28062 24.081C6.89115 26.5978 10.3768 28.0028 14.003 28Z" fill="#FFAA00"/>
<path d="M15.0029 0.0510254V13H27.9519C27.7083 9.64635 26.2658 6.49238 23.8882 4.11474C21.5106 1.7371 18.3566 0.294618 15.0029 0.0510254Z" fill="#35BE49"/>
<path d="M16.417 15L24.571 23.154C26.5528 20.8748 27.7395 18.0128 27.952 15H16.417Z" fill="#1F7AE0"/>
</svg>
