<svg width="57" height="56" viewBox="0 0 57 56" fill="none" xmlns="http://www.w3.org/2000/svg">
<g filter="url(#filter0_i_355_27681)">
<path d="M48.1815 8.18519C42.3606 2.36154 34.4206 -0.576848 26.0835 0.0941442C14.8751 0.994392 5.05066 8.78909 1.7628 19.5417C-0.585673 27.2246 0.401246 35.2458 4.2259 41.8718L0.602543 53.9022C0.255864 55.0568 1.30988 56.1444 2.47573 55.8341L15.068 52.4595C19.1471 54.685 23.7378 55.8564 28.4124 55.8592H28.4236C40.152 55.8592 50.9885 48.6852 54.7377 37.5719C58.389 26.7353 55.6882 15.7003 48.1815 8.18519Z" fill="url(#paint0_linear_355_27681)"/>
</g>
<g filter="url(#filter1_i_355_27681)">
<path d="M42.5476 37.8935C41.9661 39.5235 39.1171 41.0947 37.8367 41.2093C36.5562 41.3268 35.3568 41.7881 29.4632 39.4648C22.3703 36.669 17.8914 29.3971 17.5447 28.933C17.1952 28.4661 14.6958 25.1503 14.6958 21.717C14.6958 18.2838 16.4991 16.5951 17.1393 15.8989C17.7796 15.2 18.5344 15.0267 19.0013 15.0267C19.4654 15.0267 19.9323 15.0267 20.3377 15.0434C20.8354 15.063 21.3862 15.0882 21.909 16.2484C22.5296 17.6295 23.8856 21.0796 24.0589 21.429C24.2323 21.7785 24.3497 22.1867 24.1177 22.6508C23.8856 23.1149 23.7682 23.4057 23.4215 23.8139C23.072 24.222 22.689 24.7225 22.3759 25.0356C22.0264 25.3823 21.6629 25.7625 22.0683 26.4587C22.4765 27.1576 23.8744 29.4418 25.9489 31.2898C28.6161 33.6663 30.8611 34.4016 31.5601 34.7538C32.259 35.1033 32.6644 35.0446 33.0726 34.5777C33.4808 34.1136 34.8172 32.5424 35.2813 31.8434C35.7454 31.1445 36.2123 31.2619 36.8525 31.4939C37.4928 31.726 40.9232 33.4146 41.6194 33.7641C42.3183 34.1136 42.7824 34.2869 42.9558 34.5777C43.1291 34.8657 43.1291 36.2636 42.5476 37.8935Z" fill="url(#paint1_linear_355_27681)"/>
</g>
<defs>
<filter id="filter0_i_355_27681" x="0.5" y="0" width="55.8506" height="57.8877" filterUnits="userSpaceOnUse" color-interpolation-filters="sRGB">
<feFlood flood-opacity="0" result="BackgroundImageFix"/>
<feBlend mode="normal" in="SourceGraphic" in2="BackgroundImageFix" result="shape"/>
<feColorMatrix in="SourceAlpha" type="matrix" values="0 0 0 0 0 0 0 0 0 0 0 0 0 0 0 0 0 0 127 0" result="hardAlpha"/>
<feOffset dy="2"/>
<feGaussianBlur stdDeviation="1.5"/>
<feComposite in2="hardAlpha" operator="arithmetic" k2="-1" k3="1"/>
<feColorMatrix type="matrix" values="0 0 0 0 0 0 0 0 0 0.724658 0 0 0 0 0.41064 0 0 0 1 0"/>
<feBlend mode="normal" in2="shape" result="effect1_innerShadow_355_27681"/>
</filter>
<filter id="filter1_i_355_27681" x="14.6958" y="15.0267" width="29.3608" height="27.2989" filterUnits="userSpaceOnUse" color-interpolation-filters="sRGB">
<feFlood flood-opacity="0" result="BackgroundImageFix"/>
<feBlend mode="normal" in="SourceGraphic" in2="BackgroundImageFix" result="shape"/>
<feColorMatrix in="SourceAlpha" type="matrix" values="0 0 0 0 0 0 0 0 0 0 0 0 0 0 0 0 0 0 127 0" result="hardAlpha"/>
<feOffset dx="1" dy="1"/>
<feGaussianBlur stdDeviation="1.5"/>
<feComposite in2="hardAlpha" operator="arithmetic" k2="-1" k3="1"/>
<feColorMatrix type="matrix" values="0 0 0 0 1 0 0 0 0 1 0 0 0 0 1 0 0 0 0.3 0"/>
<feBlend mode="normal" in2="shape" result="effect1_innerShadow_355_27681"/>
</filter>
<linearGradient id="paint0_linear_355_27681" x1="28.4253" y1="0" x2="28.4253" y2="55.8877" gradientUnits="userSpaceOnUse">
<stop stop-color="#009333"/>
<stop offset="1" stop-color="#004819"/>
</linearGradient>
<linearGradient id="paint1_linear_355_27681" x1="28.8762" y1="0.45779" x2="28.8762" y2="41.3255" gradientUnits="userSpaceOnUse">
<stop stop-color="white"/>
<stop offset="1" stop-color="white" stop-opacity="0.3"/>
</linearGradient>
</defs>
</svg>
