<svg width="62" height="12" viewBox="0 0 62 12" fill="none" xmlns="http://www.w3.org/2000/svg">
<path d="M5.04324 11.0116V6.44659L4.47804 8.53346H2.60855L2.04333 6.44659V11.0116H0.130371V0.446777H2.04333L3.56502 5.27271L5.0867 0.446777H6.99969V11.0116H5.04324Z" fill="white"/>
<path d="M7.0867 0.359863H6.91278H5.13025H5.04329L4.99982 0.490288L3.56507 5.01185L2.13034 0.490288L2.08688 0.359863H1.95645H0.173891H0V0.533754V10.9247V11.0986H0.173891H1.95645H2.13034V10.9247V7.09876L2.52164 8.48999L2.56511 8.62044H2.69554H4.4346H4.56506L4.60852 8.48999L4.99982 7.05526V10.9247V11.0986H5.17371H6.95628H7.13017V10.9247V0.533754V0.359863H7.0867ZM6.91278 0.533754V10.9247H5.13025V5.83792L4.4346 8.48999H2.69554L1.99992 5.83792V10.9682H0.217384V0.577247H1.99992L3.60856 5.62054L5.21721 0.577247H6.91278V0.533754Z" fill="white"/>
<path d="M11.0864 2.40323H9.95596V5.96833H11.0864V2.40323ZM11.0864 11.0116V7.92478H9.95596V11.0116H7.99951V1.62065C7.99951 0.968503 8.52124 0.446777 9.17339 0.446777H11.869C12.5211 0.446777 13.0428 0.968503 13.0428 1.62065V11.0116H11.0864Z" fill="white"/>
<path d="M10.043 2.49021H10.9995V5.88139H10.043V2.49021ZM11.869 0.359863H9.17343C8.47781 0.359863 7.9126 0.925045 7.9126 1.62067V10.9247V11.0986H8.08652H9.86905H10.043V10.9247V8.01176H10.9995V10.9247V11.0986H11.1734H12.9559H13.1298V10.9247V3.66408V2.01197V1.62067C13.1298 0.925045 12.5646 0.359863 11.869 0.359863ZM9.86905 6.0553H11.1734V2.31632H9.86905V6.0553ZM11.869 0.533754C12.4777 0.533754 12.9559 1.012 12.9559 1.62067V2.01197V3.66408V10.9247H11.1734V7.83784H9.86905V10.9247H8.08652V1.62067C8.08652 1.012 8.56476 0.533754 9.17343 0.533754H11.869Z" fill="white"/>
<path d="M17.3038 11.0116L17.2603 10.8812L15.956 6.70744H15.9125V11.0116H13.9561V0.446777H15.9125V4.70752L17.2603 0.446777H19.2602L17.5646 5.70748L19.2602 11.0116H17.3038Z" fill="white"/>
<path d="M19.3907 0.359863H19.1733H17.3473H17.2169L17.1734 0.490288L15.9995 4.18581V0.533754V0.359863H15.8256H14.0431H13.8691V0.533754V10.9247V11.0986H14.0431H15.8256H15.9995V10.9247V7.18569L17.1734 10.9247V10.9682L17.2169 11.0986H17.3473H19.1298H19.3472L19.2603 10.8812L17.6082 5.7075L19.2603 0.577247L19.3907 0.359863ZM19.1733 0.533754L17.5212 5.7075L19.1733 10.9247H17.3908V10.8812L16.043 6.6205H15.8691V10.9682H14.0865V0.577247H15.8691V4.88143H15.9995L17.3473 0.577247H19.1733V0.533754Z" fill="white"/>
<path d="M19.6079 11.0116V0.446777H24.6512V2.40323H21.5644V4.75098H24.0425V6.70744H21.5644V9.05519H24.6512V11.0116H19.6079Z" fill="white"/>
<path d="M24.7382 0.359863H24.5643H19.6949H19.521V0.533754V10.9247V11.0986H19.6949H24.5643H24.7382V10.9247V9.14214V8.96825H24.5643H21.6514V6.79441H23.9556H24.1295V6.6205V4.83796V4.66404H23.9556H21.6514V2.49021H24.5643H24.7382V2.31632V0.533754V0.359863ZM24.5643 0.533754V2.31632H21.4774V4.83796H23.9556V6.6205H21.4774V9.14214H24.5643V10.9247H19.6949V0.533754H24.5643Z" fill="white"/>
<path d="M27.8252 0.446777H29.7816V11.0116H27.8252V0.446777Z" fill="white"/>
<path d="M29.8686 0.359863H29.6947H27.9122H27.7383V0.533754V10.9247V11.0986H27.9122H29.6947H29.8686V10.9247V0.533754V0.359863ZM29.6947 10.9247H27.9122V0.533754H29.6947V10.9247Z" fill="white"/>
<path d="M33.7812 11.0116L32.6073 6.96829V11.0116H30.6509V0.446777H32.5638L33.7377 4.22926V0.446777H35.6942V11.0116H33.7812Z" fill="white"/>
<path d="M35.7812 0.359899H35.6073H33.8248H33.6508V0.53379V3.66412L32.6509 0.446831L32.6074 0.316406H32.477H30.6944H30.5205V0.490324V10.8812V11.0552H30.6944H32.477H32.6509V10.8812V7.57703L33.6508 10.9682L33.6943 11.0986H33.8248H35.6073H35.7812V10.9247V0.53379V0.359899ZM35.6073 0.53379V10.9247H33.8248L32.5205 6.35968V10.9247H30.7379V0.53379H32.5205L33.8248 4.7945V0.53379H35.6073Z" fill="white"/>
<path d="M39.2593 0.446777H41.2157V11.0116H39.2593V0.446777Z" fill="white"/>
<path d="M41.3027 0.359863H41.1288H39.3463H39.1724V0.533754V10.9247V11.0986H39.3463H41.1288H41.3027V10.9247V0.533754V0.359863ZM41.1288 10.9247H39.3463V0.533754H41.1288V10.9247Z" fill="white"/>
<path d="M45.2158 11.0116L44.0419 6.96829V11.0116H42.0854V0.446777H43.9984L45.1723 4.22926V0.446777H47.1287V11.0116H45.2158Z" fill="white"/>
<path d="M47.2157 0.359899H47.0418H45.2593H45.0854V0.53379V3.66412L44.0854 0.446831L44.0419 0.316406H43.9115H42.129H41.9985V0.490324V10.8812V11.0552H42.1725H43.955H44.1289V10.8812V7.57703L45.1289 10.9682L45.1723 11.0986H45.3028H47.0853H47.2592V10.9247V0.53379V0.359899H47.2157ZM47.0418 0.53379V10.9247H45.2593L43.955 6.35968V10.9247H42.1725V0.53379H43.955L45.2593 4.7945V0.53379H47.0418Z" fill="white"/>
<path d="M51.1288 2.40323H49.9984V9.05519H51.1288V2.40323ZM48.042 11.0116V0.446777H51.9114C52.5636 0.446777 53.0853 0.968503 53.0853 1.62065V9.83777C53.0853 10.4899 52.5636 11.0116 51.9114 11.0116H48.042Z" fill="white"/>
<path d="M50.0849 2.49021H51.0414V8.96825H50.0849V2.49021ZM51.911 0.359863H48.1285H47.9546V0.533754V10.9247V11.0986H48.1285H51.911C52.6066 11.0986 53.1718 10.5334 53.1718 9.83778V1.62067C53.1718 0.925045 52.6066 0.359863 51.911 0.359863ZM49.911 9.14214H51.2153V2.31632H49.911V9.14214ZM51.911 0.533754C52.5196 0.533754 52.9979 1.012 52.9979 1.62067V9.83778C52.9979 10.4465 52.4762 10.9247 51.911 10.9247H48.1285V0.533754H51.911Z" fill="white"/>
<path d="M54.085 0.446777H55.9979V11.0116H54.085V0.446777Z" fill="white"/>
<path d="M56.085 0.359863H55.911H54.1285H53.9546V0.533754V10.9247V11.0986H54.1285H55.911H56.085V10.9247V0.533754V0.359863ZM55.9545 10.9247H54.172V0.533754H55.9545V10.9247Z" fill="white"/>
<path d="M59.9546 2.40323H58.8241V5.96833H59.9546V2.40323ZM59.9546 11.0116V7.92478H58.8241V11.0116H56.8677V1.62065C56.8677 0.968503 57.3894 0.446777 58.0416 0.446777H60.7371C61.3893 0.446777 61.911 0.968503 61.911 1.62065V11.0116H59.9546Z" fill="white"/>
<path d="M58.9111 2.49021H59.8676V5.88139H58.9111V2.49021ZM60.7371 0.359863H58.0416C57.346 0.359863 56.7808 0.925045 56.7808 1.62067V10.9247V11.0986H56.9547H58.7372H58.9111V10.9247V8.01176H59.8676V10.9247V11.0986H60.0415H61.8241H61.998V10.9247V3.66408V2.01197V1.62067C62.0414 0.925045 61.4328 0.359863 60.7371 0.359863ZM58.7807 6.0553H60.085V2.31632H58.7807V6.0553ZM60.7371 0.533754C61.3458 0.533754 61.8241 1.012 61.8241 1.62067V2.01197V3.66408V10.9247H60.0415V7.83784H58.7372V10.9247H56.9547V1.62067C56.9547 1.012 57.4329 0.533754 58.0416 0.533754H60.7371Z" fill="white"/>
</svg>
