<svg width="30" height="30" viewBox="0 0 30 30" fill="none" xmlns="http://www.w3.org/2000/svg">
<path d="M25.5598 4.4289C22.4395 1.30711 18.1832 -0.268023 13.7141 0.091665C7.70583 0.574246 2.4394 4.75262 0.676929 10.5166C-0.581979 14.635 -0.0529377 18.9348 1.99728 22.4867L0.0549687 28.9356C-0.13087 29.5546 0.43414 30.1376 1.0591 29.9712L7.80924 28.1623C9.99584 29.3553 12.4567 29.9832 14.9625 29.9847H14.9685C21.2556 29.9847 27.0645 26.1391 29.0743 20.1817C31.0316 14.3728 29.5838 8.45741 25.5598 4.4289ZM22.2942 20.3541C21.9824 21.2278 20.4553 22.0701 19.7689 22.1315C19.0825 22.1945 18.4395 22.4418 15.2803 21.1964C11.4781 19.6977 9.07714 15.7995 8.8913 15.5507C8.70396 15.3005 7.36413 13.523 7.36413 11.6826C7.36413 9.8422 8.33079 8.93699 8.67399 8.56381C9.01719 8.18914 9.42184 8.09622 9.67212 8.09622C9.92091 8.09622 10.1712 8.09622 10.3885 8.10521C10.6553 8.1157 10.9505 8.12919 11.2308 8.75115C11.5635 9.49151 12.2903 11.3409 12.3833 11.5282C12.4762 11.7156 12.5391 11.9344 12.4147 12.1832C12.2903 12.432 12.2274 12.5878 12.0416 12.8066C11.8542 13.0254 11.6489 13.2937 11.4811 13.4616C11.2937 13.6474 11.0989 13.8512 11.3162 14.2244C11.535 14.5991 12.2844 15.8235 13.3964 16.8142C14.8261 18.088 16.0296 18.4822 16.4043 18.671C16.779 18.8584 16.9963 18.8269 17.2151 18.5766C17.4339 18.3278 18.1503 17.4856 18.399 17.1109C18.6478 16.7362 18.8981 16.7992 19.2413 16.9236C19.5845 17.048 21.4234 17.9532 21.7966 18.1405C22.1713 18.3278 22.4201 18.4208 22.513 18.5766C22.6059 18.731 22.6059 19.4803 22.2942 20.3541Z" fill="#35BE49"/>
</svg>
