<svg width="31" height="48" viewBox="0 0 31 48" fill="none" xmlns="http://www.w3.org/2000/svg">
<path fill-rule="evenodd" clip-rule="evenodd" d="M31 23.5769C31 36.1203 24.1871 46.291 15.7829 46.291C13.1145 46.291 10.6066 45.2664 8.42607 43.4658L0 47.4914L2.74634 35.3044C1.3607 31.8813 0.562673 27.8651 0.562673 23.5746C0.564232 11.0313 7.37709 0.860596 15.7829 0.860596C24.1887 0.860596 31 11.0313 31 23.5769ZM15.7829 4.47824C8.72688 4.47824 2.98793 13.0429 2.98793 23.5769C2.98793 27.7526 3.89195 31.6234 5.4241 34.7745L3.82649 41.8668L8.74247 39.5176C10.7625 41.5104 13.1831 42.6757 15.7829 42.6757C22.8373 42.6757 28.5763 34.1087 28.5763 23.5793C28.5763 13.0499 22.8358 4.47824 15.7829 4.47824ZM23.467 28.8076C23.3735 28.5755 23.1241 28.4349 22.7516 28.1582C22.3791 27.8792 20.543 26.5311 20.2017 26.3482C19.8603 26.163 19.6094 26.0692 19.3631 26.6249C19.1137 27.1829 18.3999 28.4372 18.1801 28.8076C17.9634 29.1804 17.7468 29.225 17.3727 28.946C16.9986 28.6693 15.7969 28.0785 14.3723 26.1841C13.2641 24.707 12.516 22.8853 12.2962 22.3273C12.0795 21.7716 12.2744 21.4692 12.4599 21.1925C12.6282 20.9417 12.8339 20.5431 13.0194 20.2196C13.2064 19.8937 13.2688 19.6592 13.3919 19.2888C13.5166 18.916 13.4543 18.5924 13.3608 18.3158C13.2688 18.0368 12.5222 15.2983 12.2105 14.1823C11.9019 13.0687 11.5901 13.1109 11.3719 13.1109C11.1537 13.1109 10.7516 13.207 10.7516 13.207C10.7516 13.207 10.0034 13.3453 9.66208 13.9033C9.32073 14.459 8.35748 15.8071 8.35748 18.5455C8.35748 21.284 9.69325 23.9333 9.87873 24.3038C10.0658 24.6765 12.4583 30.4817 16.252 32.7113C20.0442 34.941 20.0442 34.1954 20.7285 34.1016C21.4112 34.0102 22.9355 32.7559 23.2457 31.4546C23.5574 30.1534 23.5574 29.0398 23.4639 28.8076H23.467Z" fill="#00A87E"/>
</svg>
