<svg width="32" height="25" viewBox="0 0 32 25" fill="none" xmlns="http://www.w3.org/2000/svg">
<path d="M23.8193 13.047L22.688 15.7447H24.9505L23.8193 13.047Z" fill="#FFAA00"/>
<path d="M13.6748 17.3297V19.3809C13.6748 20.8416 14.862 22.0288 16.3227 22.0288H24.2914L27.0823 24.8197C27.2004 24.9378 27.3621 25 27.5174 25C27.5983 25 27.6791 24.9813 27.7599 24.9503C27.9898 24.857 28.139 24.627 28.139 24.3784V22.0288H28.4312C29.8919 22.0288 31.0791 20.8416 31.0791 19.3809V10.6166C31.0791 9.15585 29.8919 7.96863 28.4312 7.96863H21.196V13.1215C21.196 15.44 19.3063 17.3297 16.9816 17.3297H13.6748ZM20.2698 18.3118L21.1835 16.13V16.1238L23.2472 11.1946C23.3404 10.9584 23.5704 10.8093 23.819 10.8093C24.0677 10.8093 24.2976 10.9584 24.3909 11.1946L26.4545 16.1238L26.4608 16.13L27.3683 18.3118C27.505 18.6288 27.3558 18.9893 27.0388 19.126C26.958 19.1571 26.8772 19.1695 26.7964 19.1695C26.554 19.1695 26.324 19.0266 26.2246 18.7904L25.4724 16.9878H22.1656L21.4135 18.7904C21.283 19.1074 20.9162 19.2566 20.6055 19.126C20.2884 18.9955 20.1393 18.6288 20.2698 18.3118Z" fill="#FFAA00"/>
<path d="M11.2755 6.68823H8.67725C8.95696 7.24766 9.38585 8.01842 9.97635 8.77675C10.5669 8.01842 10.9957 7.24766 11.2755 6.68823Z" fill="#1F7AE0"/>
<path fill-rule="evenodd" clip-rule="evenodd" d="M3.40006 16.0866H2.96495C1.33019 16.0866 0 14.7564 0 13.1154V2.97116C0 1.3364 1.33019 0 2.96495 0H16.9816C18.6164 0 19.9528 1.3364 19.9528 2.97116V13.1216C19.9528 14.7564 18.6164 16.0866 16.9816 16.0866H7.72005L4.45675 19.3436C4.33865 19.4617 4.18325 19.5239 4.02164 19.5239C3.94083 19.5239 3.86003 19.5115 3.77922 19.4804C3.54924 19.3809 3.40006 19.1572 3.40006 18.9023V16.0866Z" fill="#1F7AE0"/>
<path d="M13.6765 5.21952V6.16121H12.6258V11.7618H11.4561V9.35302H10.2765V9.48189C10.2765 9.99734 10.0981 10.417 9.74122 10.7408C9.39098 11.058 8.87883 11.2166 8.20478 11.2166C7.73559 11.2166 7.30275 11.1406 6.90625 10.9886V9.90812C7.33579 10.1262 7.75211 10.2352 8.15522 10.2352C8.43938 10.2352 8.67728 10.1625 8.86892 10.0172C9.06056 9.87178 9.15638 9.64049 9.15638 9.32329C9.15638 8.80784 8.80284 8.55011 8.09575 8.55011H7.71907V7.55887H8.02636C8.63433 7.55887 8.93831 7.32427 8.93831 6.85508C8.93831 6.40571 8.67728 6.18103 8.15522 6.18103C7.81159 6.18103 7.47457 6.26033 7.14415 6.41893V5.36821C7.46796 5.24265 7.82811 5.17987 8.22461 5.17987C8.82597 5.17987 9.28855 5.31865 9.61236 5.59619C9.94277 5.86714 10.108 6.24051 10.108 6.71631C10.108 7.05994 10.0188 7.3474 9.84034 7.57869C9.66853 7.80998 9.42732 7.96858 9.11673 8.05449C9.40089 8.09414 9.65201 8.20979 9.87008 8.40143H11.4561V6.16121H10.6433V5.21952H13.6765Z" fill="white"/>
</svg>
