<svg width="349" height="147" viewBox="0 0 349 147" fill="none" xmlns="http://www.w3.org/2000/svg">
<path fill-rule="evenodd" clip-rule="evenodd" d="M344.344 146.164C347.189 137.591 348.692 128.666 348.692 119.5C348.692 53.502 270.789 0 174.692 0C78.5943 0 0.691895 53.502 0.691895 119.5C0.691895 128.666 2.19445 137.591 5.03962 146.164C33.5632 106.044 98.7894 78 174.692 78C250.594 78 315.821 106.044 344.344 146.164Z" fill="url(#paint0_radial_328_15703)"/>
<path fill-rule="evenodd" clip-rule="evenodd" d="M344.344 146.164C347.189 137.591 348.692 128.666 348.692 119.5C348.692 53.502 270.789 0 174.692 0C78.5943 0 0.691895 53.502 0.691895 119.5C0.691895 128.666 2.19445 137.591 5.03962 146.164C33.5632 106.044 98.7894 78 174.692 78C250.594 78 315.821 106.044 344.344 146.164Z" fill="url(#paint1_radial_328_15703)" fill-opacity="0.2"/>
<defs>
<radialGradient id="paint0_radial_328_15703" cx="0" cy="0" r="1" gradientUnits="userSpaceOnUse" gradientTransform="translate(174.692) rotate(90) scale(44 250.136)">
<stop stop-color="#0032A6"/>
<stop offset="1" stop-color="#0D0311" stop-opacity="0"/>
</radialGradient>
<radialGradient id="paint1_radial_328_15703" cx="0" cy="0" r="1" gradientUnits="userSpaceOnUse" gradientTransform="translate(179.692 -3) rotate(90) scale(35 130.884)">
<stop offset="0.25" stop-color="#76A1FF"/>
<stop offset="0.65" stop-color="#111111" stop-opacity="0"/>
</radialGradient>
</defs>
</svg>
