<svg width="19" height="21" viewBox="0 0 19 21" fill="none" xmlns="http://www.w3.org/2000/svg">
<mask id="path-1-inside-1_328_15994" fill="white">
<path fill-rule="evenodd" clip-rule="evenodd" d="M8.95517 11.2463C11.9227 11.2463 14.3283 8.84063 14.3283 5.87313C14.3283 2.90563 11.9227 0.5 8.95517 0.5C5.98767 0.5 3.58203 2.90563 3.58203 5.87313C3.58203 8.84063 5.98767 11.2463 8.95517 11.2463ZM17.8031 16.9588C18.2681 18.0815 18.5075 19.2848 18.5075 20.5H9.25373L0 20.5C0 19.2848 0.239355 18.0815 0.704398 16.9588C1.16944 15.8361 1.85107 14.816 2.71035 13.9567C3.56964 13.0974 4.58977 12.4158 5.71248 11.9507C6.8352 11.4857 8.03851 11.2463 9.25373 11.2463C10.4689 11.2463 11.6723 11.4857 12.795 11.9507C13.9177 12.4158 14.9378 13.0974 15.7971 13.9567C16.6564 14.816 17.338 15.8361 17.8031 16.9588Z"/>
</mask>
<path d="M18.5075 20.5V21.5H19.5075V20.5H18.5075ZM17.8031 16.9588L16.8792 17.3415L17.8031 16.9588ZM9.25373 20.5V19.5V20.5ZM0 20.5H-1V21.5H2.06117e-07L0 20.5ZM0.704398 16.9588L-0.219481 16.5761H-0.219482L0.704398 16.9588ZM2.71035 13.9567L3.41746 14.6638H3.41746L2.71035 13.9567ZM5.71248 11.9507L5.3298 11.0268H5.3298L5.71248 11.9507ZM15.7971 13.9567L16.5042 13.2496V13.2496L15.7971 13.9567ZM13.3283 5.87313C13.3283 8.28835 11.3704 10.2463 8.95517 10.2463V12.2463C12.475 12.2463 15.3283 9.39292 15.3283 5.87313H13.3283ZM8.95517 1.5C11.3704 1.5 13.3283 3.45792 13.3283 5.87313H15.3283C15.3283 2.35335 12.475 -0.5 8.95517 -0.5V1.5ZM4.58203 5.87313C4.58203 3.45792 6.53995 1.5 8.95517 1.5V-0.5C5.43538 -0.5 2.58203 2.35335 2.58203 5.87313H4.58203ZM8.95517 10.2463C6.53995 10.2463 4.58203 8.28835 4.58203 5.87313H2.58203C2.58203 9.39292 5.43538 12.2463 8.95517 12.2463V10.2463ZM19.5075 20.5C19.5075 19.1535 19.2422 17.8202 18.7269 16.5761L16.8792 17.3415C17.294 18.3429 17.5075 19.4162 17.5075 20.5H19.5075ZM9.25373 21.5H18.5075V19.5H9.25373V21.5ZM2.06117e-07 21.5L9.25373 21.5V19.5L-2.06117e-07 19.5L2.06117e-07 21.5ZM-0.219482 16.5761C-0.73478 17.8202 -1 19.1535 -1 20.5H1C1 19.4162 1.21349 18.3429 1.62828 17.3415L-0.219482 16.5761ZM2.00325 13.2496C1.0511 14.2017 0.295817 15.3321 -0.219481 16.5761L1.62828 17.3415C2.04307 16.3401 2.65103 15.4302 3.41746 14.6638L2.00325 13.2496ZM5.3298 11.0268C4.08576 11.5421 2.95539 12.2974 2.00325 13.2496L3.41746 14.6638C4.18389 13.8973 5.09378 13.2894 6.09516 12.8746L5.3298 11.0268ZM9.25373 10.2463C7.90719 10.2463 6.57384 10.5115 5.3298 11.0268L6.09516 12.8746C7.09655 12.4598 8.16984 12.2463 9.25373 12.2463V10.2463ZM13.1777 11.0268C11.9336 10.5115 10.6003 10.2463 9.25373 10.2463V12.2463C10.3376 12.2463 11.4109 12.4598 12.4123 12.8746L13.1777 11.0268ZM16.5042 13.2496C15.5521 12.2974 14.4217 11.5421 13.1777 11.0268L12.4123 12.8746C13.4137 13.2894 14.3236 13.8973 15.09 14.6638L16.5042 13.2496ZM18.7269 16.5761C18.2116 15.3321 17.4564 14.2017 16.5042 13.2496L15.09 14.6638C15.8564 15.4302 16.4644 16.3401 16.8792 17.3415L18.7269 16.5761Z" fill="#8A8C9E" mask="url(#path-1-inside-1_328_15994)"/>
</svg>
