<svg width="62" height="12" viewBox="0 0 62 12" fill="none" xmlns="http://www.w3.org/2000/svg">
<path d="M5.04324 11.0118V6.44671L4.47804 8.53359H2.60855L2.04333 6.44671V11.0118H0.130371V0.446899H2.04333L3.56502 5.27283L5.0867 0.446899H6.99969V11.0118H5.04324Z" fill="white"/>
<path d="M7.0867 0.359985H6.91278H5.13025H5.04329L4.99982 0.49041L3.56507 5.01197L2.13034 0.49041L2.08688 0.359985H1.95645H0.173891H0V0.533876V10.9248V11.0987H0.173891H1.95645H2.13034V10.9248V7.09888L2.52164 8.49011L2.56511 8.62056H2.69554H4.4346H4.56506L4.60852 8.49011L4.99982 7.05539V10.9248V11.0987H5.17371H6.95628H7.13017V10.9248V0.533876V0.359985H7.0867ZM6.91278 0.533876V10.9248H5.13025V5.83804L4.4346 8.49011H2.69554L1.99992 5.83804V10.9683H0.217384V0.577369H1.99992L3.60856 5.62066L5.21721 0.577369H6.91278V0.533876Z" fill="white"/>
<path d="M11.0866 2.40335H9.95621V5.96845H11.0866V2.40335ZM11.0866 11.0118V7.9249H9.95621V11.0118H7.99976V1.62078C7.99976 0.968625 8.52148 0.446899 9.17363 0.446899H11.8692C12.5213 0.446899 13.0431 0.968625 13.0431 1.62078V11.0118H11.0866Z" fill="white"/>
<path d="M10.0432 2.49033H10.9997V5.88151H10.0432V2.49033ZM11.8692 0.359985H9.17368C8.47805 0.359985 7.91284 0.925167 7.91284 1.62079V10.9248V11.0987H8.08676H9.86929H10.0432V10.9248V8.01188H10.9997V10.9248V11.0987H11.1736H12.9562H13.13V10.9248V3.66421V2.0121V1.62079C13.13 0.925167 12.5649 0.359985 11.8692 0.359985ZM9.86929 6.05543H11.1736V2.31644H9.86929V6.05543ZM11.8692 0.533876C12.4779 0.533876 12.9562 1.01212 12.9562 1.62079V2.0121V3.66421V10.9248H11.1736V7.83796H9.86929V10.9248H8.08676V1.62079C8.08676 1.01212 8.565 0.533876 9.17368 0.533876H11.8692Z" fill="white"/>
<path d="M17.3038 11.0118L17.2603 10.8813L15.956 6.70756H15.9125V11.0118H13.9561V0.446899H15.9125V4.70764L17.2603 0.446899H19.2602L17.5646 5.7076L19.2602 11.0118H17.3038Z" fill="white"/>
<path d="M19.3907 0.359985H19.1733H17.3473H17.2169L17.1734 0.49041L15.9995 4.18593V0.533876V0.359985H15.8256H14.0431H13.8691V0.533876V10.9248V11.0987H14.0431H15.8256H15.9995V10.9248V7.18581L17.1734 10.9248V10.9683L17.2169 11.0987H17.3473H19.1298H19.3472L19.2603 10.8813L17.6082 5.70762L19.2603 0.577369L19.3907 0.359985ZM19.1733 0.533876L17.5212 5.70762L19.1733 10.9248H17.3908V10.8813L16.043 6.62062H15.8691V10.9683H14.0865V0.577369H15.8691V4.88155H15.9995L17.3473 0.577369H19.1733V0.533876Z" fill="white"/>
<path d="M19.6079 11.0118V0.446899H24.6512V2.40335H21.5644V4.75111H24.0425V6.70756H21.5644V9.05531H24.6512V11.0118H19.6079Z" fill="white"/>
<path d="M24.7382 0.359985H24.5643H19.6949H19.521V0.533876V10.9248V11.0987H19.6949H24.5643H24.7382V10.9248V9.14226V8.96837H24.5643H21.6514V6.79454H23.9556H24.1295V6.62062V4.83808V4.66417H23.9556H21.6514V2.49033H24.5643H24.7382V2.31644V0.533876V0.359985ZM24.5643 0.533876V2.31644H21.4774V4.83808H23.9556V6.62062H21.4774V9.14226H24.5643V10.9248H19.6949V0.533876H24.5643Z" fill="white"/>
<path d="M27.8252 0.446899H29.7816V11.0118H27.8252V0.446899Z" fill="white"/>
<path d="M29.8686 0.359985H29.6947H27.9122H27.7383V0.533876V10.9248V11.0987H27.9122H29.6947H29.8686V10.9248V0.533876V0.359985ZM29.6947 10.9248H27.9122V0.533876H29.6947V10.9248Z" fill="white"/>
<path d="M33.7814 11.0118L32.6076 6.96841V11.0118H30.6511V0.446899H32.5641L33.738 4.22938V0.446899H35.6944V11.0118H33.7814Z" fill="white"/>
<path d="M35.7815 0.360021H35.6075H33.825H33.6511V0.533912V3.66424L32.6511 0.446953L32.6077 0.316528H32.4772H30.6947H30.5208V0.490446V10.8814V11.0553H30.6947H32.4772H32.6511V10.8814V7.57715L33.6511 10.9683L33.6946 11.0988H33.825H35.6075H35.7815V10.9249V0.533912V0.360021ZM35.6075 0.533912V10.9249H33.825L32.5207 6.3598V10.9249H30.7381V0.533912H32.5207L33.825 4.79463V0.533912H35.6075Z" fill="white"/>
<path d="M39.2595 0.446899H41.216V11.0118H39.2595V0.446899Z" fill="white"/>
<path d="M41.303 0.359985H41.1291H39.3465H39.1726V0.533876V10.9248V11.0987H39.3465H41.1291H41.303V10.9248V0.533876V0.359985ZM41.1291 10.9248H39.3465V0.533876H41.1291V10.9248Z" fill="white"/>
<path d="M45.2158 11.0118L44.0419 6.96841V11.0118H42.0854V0.446899H43.9984L45.1723 4.22938V0.446899H47.1287V11.0118H45.2158Z" fill="white"/>
<path d="M47.2157 0.360021H47.0418H45.2593H45.0854V0.533912V3.66424L44.0854 0.446953L44.0419 0.316528H43.9115H42.129H41.9985V0.490446V10.8814V11.0553H42.1725H43.955H44.1289V10.8814V7.57715L45.1289 10.9683L45.1723 11.0988H45.3028H47.0853H47.2592V10.9249V0.533912V0.360021H47.2157ZM47.0418 0.533912V10.9249H45.2593L43.955 6.3598V10.9249H42.1725V0.533912H43.955L45.2593 4.79463V0.533912H47.0418Z" fill="white"/>
<path d="M51.1286 2.40335H49.9982V9.05531H51.1286V2.40335ZM48.0417 11.0118V0.446899H51.9112C52.5633 0.446899 53.085 0.968625 53.085 1.62078V9.83789C53.085 10.49 52.5633 11.0118 51.9112 11.0118H48.0417Z" fill="white"/>
<path d="M50.0852 2.49033H51.0417V8.96837H50.0852V2.49033ZM51.9112 0.359985H48.1287H47.9548V0.533876V10.9248V11.0987H48.1287H51.9112C52.6068 11.0987 53.172 10.5335 53.172 9.83791V1.62079C53.172 0.925167 52.6068 0.359985 51.9112 0.359985ZM49.9113 9.14226H51.2156V2.31644H49.9113V9.14226ZM51.9112 0.533876C52.5199 0.533876 52.9981 1.01212 52.9981 1.62079V9.83791C52.9981 10.4466 52.4764 10.9248 51.9112 10.9248H48.1287V0.533876H51.9112Z" fill="white"/>
<path d="M54.085 0.446899H55.9979V11.0118H54.085V0.446899Z" fill="white"/>
<path d="M56.085 0.359985H55.911H54.1285H53.9546V0.533876V10.9248V11.0987H54.1285H55.911H56.085V10.9248V0.533876V0.359985ZM55.9545 10.9248H54.172V0.533876H55.9545V10.9248Z" fill="white"/>
<path d="M59.9543 2.40335H58.8239V5.96845H59.9543V2.40335ZM59.9543 11.0118V7.9249H58.8239V11.0118H56.8674V1.62078C56.8674 0.968625 57.3892 0.446899 58.0413 0.446899H60.7369C61.389 0.446899 61.9108 0.968625 61.9108 1.62078V11.0118H59.9543Z" fill="white"/>
<path d="M58.9109 2.49033H59.8674V5.88151H58.9109V2.49033ZM60.7369 0.359985H58.0414C57.3457 0.359985 56.7805 0.925167 56.7805 1.62079V10.9248V11.0987H56.9544H58.737H58.9109V10.9248V8.01188H59.8674V10.9248V11.0987H60.0413H61.8238H61.9977V10.9248V3.66421V2.0121V1.62079C62.0412 0.925167 61.4325 0.359985 60.7369 0.359985ZM58.7804 6.05543H60.0847V2.31644H58.7804V6.05543ZM60.7369 0.533876C61.3456 0.533876 61.8238 1.01212 61.8238 1.62079V2.0121V3.66421V10.9248H60.0413V7.83796H58.737V10.9248H56.9544V1.62079C56.9544 1.01212 57.4327 0.533876 58.0414 0.533876H60.7369Z" fill="white"/>
</svg>
