<svg width="29" height="29" viewBox="0 0 29 29" fill="none" xmlns="http://www.w3.org/2000/svg">
<path d="M24.7611 4.24728C21.7407 1.2254 17.6206 -0.299325 13.2945 0.0488512C7.4785 0.515988 2.38062 4.56064 0.674552 10.1402C-0.544066 14.1268 -0.0319563 18.2889 1.95265 21.7272L0.0724966 27.9697C-0.107395 28.5689 0.439533 29.1332 1.04449 28.9722L7.5786 27.2211C9.69522 28.3759 12.0773 28.9838 14.503 28.9852H14.5088C20.5946 28.9852 26.2176 25.2626 28.1631 19.496C30.0577 13.8729 28.6563 8.14685 24.7611 4.24728ZM21.6 19.6628C21.2982 20.5086 19.8199 21.3239 19.1555 21.3834C18.491 21.4443 17.8687 21.6837 14.8105 20.4781C11.13 19.0274 8.80592 15.254 8.62603 15.0132C8.44469 14.7709 7.14773 13.0503 7.14773 11.2688C7.14773 9.48733 8.08346 8.61109 8.41567 8.24986C8.74789 7.88717 9.13959 7.79723 9.38186 7.79723C9.62268 7.79723 9.86496 7.79723 10.0753 7.80593C10.3335 7.81609 10.6193 7.82914 10.8906 8.4312C11.2127 9.14786 11.9163 10.9381 12.0062 11.1194C12.0962 11.3008 12.1571 11.5126 12.0367 11.7534C11.9163 11.9942 11.8554 12.1451 11.6755 12.3569C11.4941 12.5687 11.2954 12.8284 11.1329 12.9909C10.9516 13.1708 10.763 13.3681 10.9733 13.7293C11.1851 14.092 11.9105 15.2772 12.9869 16.2362C14.3709 17.4693 15.5359 17.8508 15.8986 18.0336C16.2612 18.215 16.4716 18.1845 16.6834 17.9422C16.8952 17.7014 17.5887 16.8861 17.8295 16.5234C18.0703 16.1607 18.3126 16.2216 18.6448 16.3421C18.977 16.4625 20.7571 17.3387 21.1183 17.5201C21.481 17.7014 21.7218 17.7913 21.8118 17.9422C21.9017 18.0916 21.9017 18.817 21.6 19.6628Z" fill="#35BE49"/>
</svg>
