<svg width="29" height="29" viewBox="0 0 29 29" fill="none" xmlns="http://www.w3.org/2000/svg">
<path d="M11.3632 8.03622L20.4353 20.9638H18.0235L8.96744 8.03622H11.3632ZM29 23.75C29 26.6495 26.6495 29 23.75 29H5.25C2.35051 29 0 26.6495 0 23.75V5.25C0 2.35051 2.35051 0 5.25 0H23.75C26.6495 0 29 2.35051 29 5.25V23.75ZM23.4223 22.5556L16.6782 12.905L22.1914 6.44444H20.0793L15.7228 11.5356L12.1671 6.44444H5.96433L12.3137 15.5198L6.293 22.5556H8.44061L13.2756 16.8909L17.2357 22.5556H23.4223Z" fill="white"/>
</svg>
